<?xml version="1.0" standalone="no"?>
<!DOCTYPE svg PUBLIC "-//W3C//DTD SVG 20010904//EN"
 "http://www.w3.org/TR/2001/REC-SVG-20010904/DTD/svg10.dtd">
<svg version="1.0" xmlns="http://www.w3.org/2000/svg"
 width="784.000000pt" height="784.000000pt" viewBox="0 0 784.000000 784.000000"
 preserveAspectRatio="xMidYMid meet">
<metadata>
Created by potrace 1.11, written by Peter Selinger 2001-2013
</metadata>
<g transform="translate(0.000000,784.000000) scale(0.100000,-0.100000)"
fill="#000000" stroke="none">
<path d="M4093 5945 c0 -8 4 -12 9 -9 5 3 6 10 3 15 -9 13 -12 11 -12 -6z"/>
<path d="M3970 5939 c0 -5 5 -7 10 -4 6 3 10 8 10 11 0 2 -4 4 -10 4 -5 0 -10
-5 -10 -11z"/>
<path d="M3735 5929 c-4 -6 -5 -12 -2 -15 2 -3 7 2 10 11 7 17 1 20 -8 4z"/>
<path d="M4154 5920 c0 -13 4 -16 10 -10 7 7 7 13 0 20 -6 6 -10 3 -10 -10z"/>
<path d="M3636 5922 c-3 -5 1 -9 9 -9 8 0 12 4 9 9 -3 4 -7 8 -9 8 -2 0 -6 -4
-9 -8z"/>
<path d="M3792 5915 c-1 -8 -3 -21 -4 -29 -1 -8 -10 -14 -20 -13 -22 2 -23 6
0 24 15 13 15 13 -5 3 -17 -8 -29 -8 -44 1 -12 6 -19 7 -16 2 9 -14 -9 -36
-23 -28 -9 6 -9 9 1 16 7 4 10 11 6 16 -11 10 -27 -17 -20 -34 3 -7 0 -13 -7
-13 -6 0 -8 5 -4 12 5 8 2 9 -9 5 -10 -3 -17 -2 -17 2 0 5 6 12 13 14 6 3 -1
3 -18 2 -16 -2 -34 -4 -40 -4 -5 -1 -3 -5 5 -11 8 -5 12 -12 8 -15 -3 -3 -13
1 -21 10 -19 19 -28 19 -21 1 4 -11 0 -13 -17 -9 -13 4 -20 2 -16 -3 3 -5 -3
-10 -13 -10 -23 0 -15 15 13 25 20 8 20 8 -1 13 -12 4 -20 2 -17 -2 10 -16
-16 -22 -32 -8 -14 11 -16 11 -8 -1 6 -11 4 -13 -9 -8 -11 4 -15 3 -11 -4 4
-6 14 -8 22 -5 8 4 11 1 7 -5 -3 -6 -15 -9 -25 -6 -11 3 -19 1 -19 -3 0 -5 -9
-7 -20 -5 -11 2 -20 -1 -20 -7 0 -7 -4 -7 -13 1 -8 6 -17 8 -21 4 -8 -8 -30
-13 -66 -16 -14 -1 -29 -6 -33 -12 -5 -6 -7 -4 -4 6 3 9 1 22 -5 30 -8 11 -9
10 -4 -3 3 -10 1 -18 -4 -18 -9 0 -14 15 -11 33 1 5 -3 5 -9 2 -8 -5 -6 -15 5
-32 10 -14 12 -23 7 -19 -6 3 -13 2 -17 -3 -3 -5 -14 -10 -25 -10 -11 -1 -29
-1 -40 -2 -11 0 -18 -3 -16 -7 3 -4 -3 -8 -12 -9 -19 -2 -58 -9 -82 -14 -8 -2
-18 -8 -22 -14 -5 -6 -8 -5 -8 2 0 7 -10 17 -22 23 -19 9 -21 9 -8 -2 21 -19
22 -37 2 -33 -9 1 -23 -3 -31 -9 -11 -9 -13 -6 -8 14 4 14 4 19 1 13 -3 -7
-10 -13 -15 -13 -6 0 -8 4 -4 9 3 5 1 12 -4 15 -10 7 -9 -20 2 -30 10 -11 9
-26 -2 -20 -5 4 -12 0 -14 -6 -4 -10 -6 -9 -6 1 -1 11 -6 10 -21 -4 -11 -10
-20 -15 -20 -10 0 4 -7 2 -15 -5 -9 -8 -15 -8 -15 -2 0 6 5 12 12 14 7 3 5 7
-6 11 -9 4 -15 3 -11 -2 3 -5 1 -12 -5 -16 -6 -4 -8 -11 -4 -16 3 -5 2 -9 -3
-8 -4 1 -10 1 -13 -1 -3 -1 -16 -4 -30 -6 -13 -2 -27 -9 -31 -15 -3 -6 -20
-11 -37 -11 -17 -1 -30 -4 -29 -7 1 -3 -1 -6 -4 -6 -3 0 -13 -6 -21 -13 -11
-9 -17 -10 -20 -2 -2 8 -11 8 -31 -1 -15 -7 -26 -18 -23 -25 2 -6 -13 -19 -37
-28 -23 -9 -42 -15 -42 -14 0 2 -16 -8 -35 -22 -19 -13 -29 -17 -22 -8 10 13
10 18 1 24 -8 4 -9 3 -5 -4 4 -7 2 -12 -3 -12 -6 0 -11 -7 -11 -15 0 -14 -12
-19 -32 -16 -5 0 -8 -4 -8 -9 0 -6 -5 -10 -11 -10 -7 0 -5 10 5 25 9 13 16 28
16 32 0 4 -11 -9 -25 -29 -19 -28 -30 -35 -47 -32 -21 4 -21 4 -3 -5 12 -5 25
-5 33 1 8 7 12 7 12 -1 0 -6 -6 -12 -12 -12 -7 -1 -17 -2 -23 -3 -5 0 -23 -13
-38 -28 -18 -16 -35 -24 -44 -21 -11 4 -14 2 -9 -5 5 -8 0 -12 -13 -12 -12 0
-20 -5 -18 -11 1 -6 -4 -14 -11 -16 -8 -3 -10 1 -5 13 4 12 3 15 -5 10 -16 -9
-15 -33 1 -40 6 -3 3 -4 -8 -3 -12 1 -19 -3 -17 -11 1 -8 -2 -11 -7 -8 -5 3
-14 -1 -21 -9 -11 -13 -44 -10 -36 4 3 4 -4 7 -15 7 -19 0 -19 -1 1 -16 20
-15 20 -17 5 -30 -19 -15 -64 -18 -86 -5 -12 8 -12 6 0 -8 9 -12 21 -15 35
-11 18 6 19 5 8 -9 -8 -9 -21 -13 -30 -10 -13 5 -15 4 -7 -8 6 -8 3 -7 -7 3
-17 18 -30 24 -26 11 4 -11 -28 -54 -34 -48 -3 3 -4 -8 -3 -24 1 -17 -3 -29
-9 -28 -6 1 -10 -4 -8 -11 1 -8 -2 -11 -8 -7 -8 5 -8 11 0 20 15 19 -3 27 -32
15 -21 -10 -20 -10 6 -5 27 6 28 5 15 -12 -8 -10 -18 -21 -24 -25 -6 -5 -4 -8
5 -8 10 0 7 -5 -8 -16 -12 -8 -26 -13 -30 -10 -4 2 -14 1 -21 -3 -10 -6 -9
-10 4 -14 10 -5 14 -3 9 5 -4 7 -3 8 5 4 9 -6 9 -11 0 -22 -10 -13 -14 -12
-29 1 -14 12 -20 13 -26 4 -4 -7 -3 -10 3 -6 14 9 24 -16 13 -32 -5 -9 -9 -8
-14 6 -7 17 -8 17 -17 0 -8 -14 -14 -15 -32 -7 -20 10 -20 10 -4 -3 18 -15 24
-33 8 -22 -5 3 -16 -4 -24 -15 -7 -11 -17 -17 -22 -12 -5 4 -5 1 0 -7 7 -12
12 -10 27 8 10 13 18 19 18 15 0 -5 9 2 20 16 11 14 20 20 20 14 0 -7 -17 -27
-37 -45 -21 -18 -37 -39 -35 -47 3 -12 1 -12 -11 -1 -8 8 -13 17 -10 21 2 4
-4 5 -13 1 -11 -4 -13 -8 -6 -11 7 -2 9 -9 6 -14 -5 -7 -2 -8 7 -3 8 5 7 0 -4
-12 -9 -11 -14 -23 -10 -28 5 -4 3 -5 -4 -1 -7 4 -10 13 -6 21 6 17 -22 21
-32 5 -4 -6 1 -7 12 -3 16 6 16 5 4 -10 -7 -9 -17 -14 -22 -11 -5 3 -9 0 -9
-5 0 -14 13 -14 28 1 9 9 12 9 12 0 0 -7 -5 -12 -11 -12 -5 0 -7 -6 -3 -12 4
-7 3 -9 -1 -5 -5 4 -16 -6 -25 -24 -14 -25 -18 -28 -23 -15 -4 10 -1 19 8 22
8 4 15 10 15 16 0 5 -4 7 -9 4 -5 -4 -11 -3 -14 1 -2 5 -2 2 -1 -4 2 -7 -1
-13 -6 -13 -6 0 -8 -13 -5 -30 4 -22 1 -32 -10 -36 -8 -3 -13 -9 -11 -13 3 -4
-9 -8 -25 -9 -21 -2 -28 1 -23 9 4 7 3 9 -4 5 -6 -3 -9 -16 -7 -27 3 -16 0
-19 -12 -15 -12 5 -13 4 -5 -7 7 -8 9 -17 5 -21 -4 -4 1 -4 11 0 15 6 13 0 -8
-24 -15 -16 -28 -34 -28 -39 0 -4 -4 -14 -10 -21 -8 -9 -14 -9 -25 -1 -7 7
-16 9 -20 5 -3 -3 -1 -6 5 -6 6 0 9 -7 5 -17 -4 -11 -3 -14 5 -9 8 5 10 2 6
-8 -3 -9 -10 -16 -16 -16 -5 0 -7 4 -3 9 3 5 0 13 -6 17 -7 4 -9 3 -6 -3 9
-14 -29 -43 -41 -31 -6 6 -12 6 -17 -3 -5 -7 -4 -10 3 -5 6 3 13 2 16 -3 3 -5
-1 -12 -9 -15 -13 -5 -13 -9 -3 -26 13 -21 6 -31 -27 -43 -6 -2 -4 -12 5 -22
9 -11 10 -16 3 -11 -9 5 -13 0 -13 -13 0 -12 -4 -21 -9 -21 -4 0 -7 11 -6 25
2 14 -1 23 -6 19 -5 -3 -7 -10 -3 -15 3 -6 -2 -17 -12 -25 -15 -11 -16 -13 -3
-8 10 3 20 1 24 -5 3 -6 -1 -11 -9 -11 -9 0 -16 -5 -16 -11 0 -5 5 -7 11 -3 6
3 3 -5 -6 -20 -10 -14 -13 -26 -9 -26 5 0 2 -5 -6 -10 -8 -5 -15 -13 -15 -17
0 -4 -6 -17 -14 -28 -9 -14 -11 -15 -7 -3 3 12 1 15 -9 11 -12 -4 -12 -9 -3
-26 8 -16 8 -22 -1 -25 -6 -2 -8 -9 -4 -15 4 -7 0 -7 -9 1 -14 11 -16 10 -11
-6 3 -14 -1 -22 -16 -27 -24 -7 -25 -13 -10 -35 9 -13 10 -12 5 2 -3 10 -1 20
5 24 20 12 21 -5 2 -38 -10 -18 -19 -35 -20 -37 -1 -1 -8 1 -15 5 -19 12 -39
14 -32 2 3 -5 8 -7 11 -4 3 3 11 0 18 -7 13 -12 9 -47 -6 -47 -5 0 -8 -3 -8
-7 1 -5 0 -11 -1 -15 -5 -16 -8 -28 -9 -44 0 -8 -6 -12 -11 -9 -6 4 -7 12 -3
18 13 20 11 34 -3 34 -10 0 -11 -4 -3 -14 13 -15 -12 -29 -32 -17 -8 4 -9 3
-5 -4 4 -7 14 -12 22 -12 16 0 19 -16 4 -25 -6 -4 -7 -13 -1 -24 6 -10 6 -23
1 -31 -5 -8 -7 -17 -4 -21 2 -4 0 -10 -6 -14 -6 -4 -8 -11 -5 -16 9 -13 -9
-11 -25 4 -8 6 -6 2 4 -10 19 -23 19 -23 0 -24 -11 0 -13 -3 -6 -6 6 -2 12 -9
12 -14 0 -6 -9 -5 -21 2 -13 6 -19 7 -15 1 3 -6 0 -13 -6 -16 -9 -4 -8 -5 2
-5 36 3 43 -1 31 -15 -6 -8 -13 -27 -14 -44 -2 -25 -5 -28 -16 -19 -12 10 -13
9 -4 -8 6 -11 8 -29 6 -40 -2 -11 -5 -25 -5 -32 -1 -7 -5 -10 -9 -7 -5 2 -6
-9 -4 -26 4 -33 2 -34 -24 -21 -13 7 -18 6 -18 -3 0 -7 7 -13 15 -12 8 0 16
-7 18 -17 1 -12 -2 -17 -10 -14 -7 3 -18 2 -25 -3 -10 -5 -9 -9 4 -13 11 -5
14 -3 9 6 -4 6 -3 9 1 4 13 -12 16 -47 4 -47 -5 0 -7 6 -3 13 5 7 1 7 -12 -3
-29 -22 -30 -24 -11 -17 9 4 17 2 17 -4 0 -6 4 -8 9 -5 5 4 7 -3 4 -14 -3 -11
-9 -20 -14 -20 -5 0 -6 8 -2 18 7 18 5 17 -17 -12 -10 -13 -10 -17 -2 -12 7 4
12 2 12 -4 0 -6 4 -8 10 -5 6 3 7 -1 4 -9 -3 -9 -11 -13 -18 -10 -6 3 -2 -2 8
-10 17 -14 17 -16 4 -16 -9 0 -20 -5 -24 -12 -4 -7 -3 -8 4 -4 7 4 12 4 13 -1
6 -63 4 -83 -7 -79 -7 3 -15 -1 -18 -9 -3 -10 0 -12 12 -8 9 3 14 3 10 -2 -4
-4 -3 -14 3 -21 6 -8 7 -14 0 -18 -6 -4 -8 -13 -4 -21 4 -11 1 -13 -10 -9 -13
5 -15 0 -11 -21 3 -15 1 -24 -4 -21 -5 3 -9 -5 -8 -17 1 -12 -3 -26 -9 -30 -6
-5 -4 -7 5 -4 8 2 15 12 15 22 0 10 6 20 13 22 6 3 12 0 12 -7 0 -6 -5 -8 -10
-5 -6 3 -10 1 -10 -4 0 -6 6 -11 13 -11 6 -1 1 -10 -13 -22 -21 -18 -22 -20
-5 -14 18 5 20 2 20 -27 -1 -18 -4 -38 -9 -45 -4 -7 -2 -12 5 -12 10 0 10 -3
1 -12 -14 -14 -16 -32 -3 -24 12 8 5 -42 -9 -59 -6 -7 -13 -26 -15 -42 -2 -15
-2 -22 1 -15 3 6 11 12 18 12 20 0 14 -79 -7 -94 -9 -7 -17 -17 -17 -22 0 -4
5 -3 12 4 23 23 25 18 31 -95 1 -18 5 -33 10 -33 4 0 5 -5 1 -11 -9 -16 -23 9
-19 33 2 11 0 16 -6 12 -6 -3 -8 -8 -5 -12 3 -3 -2 -11 -12 -19 -16 -12 -16
-13 2 -6 13 4 17 3 12 -5 -3 -6 2 -13 12 -16 12 -4 18 -17 20 -43 3 -69 8
-103 15 -109 4 -4 7 -20 7 -35 0 -15 4 -30 9 -33 5 -4 8 -14 6 -24 -1 -9 2
-25 7 -35 14 -27 21 -76 9 -57 -5 8 -7 18 -5 22 3 4 -3 5 -12 1 -11 -4 -13 -8
-6 -11 7 -2 12 -10 12 -18 0 -8 6 -14 14 -14 10 0 12 -7 8 -22 -3 -14 -2 -19
6 -14 7 4 12 2 12 -3 0 -6 -4 -11 -10 -11 -5 0 -10 -5 -10 -11 0 -5 4 -8 9 -5
20 13 39 -102 19 -115 -5 -3 -3 -9 5 -12 11 -4 15 0 12 13 -2 11 0 22 5 25 5
3 7 -3 5 -14 -2 -11 3 -25 11 -31 7 -7 11 -16 8 -22 -3 -5 0 -15 6 -23 7 -8 9
-15 5 -15 -4 0 -2 -6 4 -13 6 -8 8 -17 4 -20 -3 -4 -1 -7 5 -7 20 0 13 -20
-10 -31 -22 -9 -22 -9 2 -5 21 4 26 1 27 -16 1 -12 8 -25 15 -29 7 -5 9 -9 4
-9 -5 0 -3 -7 4 -15 11 -13 11 -18 0 -28 -10 -10 -12 -9 -7 5 4 10 2 18 -3 18
-5 0 -9 -11 -8 -24 2 -19 5 -22 15 -15 14 12 36 2 28 -12 -4 -5 1 -16 10 -25
9 -9 19 -29 22 -45 3 -16 10 -29 15 -29 5 0 7 -4 3 -9 -3 -5 2 -17 11 -25 8
-9 12 -16 8 -16 -3 0 -1 -6 5 -13 6 -8 8 -17 4 -20 -3 -4 2 -9 11 -13 18 -7
12 -25 -7 -20 -7 1 -9 1 -4 -1 4 -3 4 -10 1 -16 -5 -8 -2 -8 7 0 13 13 38 19
26 6 -4 -3 0 -15 10 -25 9 -10 12 -18 8 -18 -5 0 -1 -6 10 -13 18 -14 14 -37
-7 -37 -6 0 -5 7 3 18 7 9 9 14 4 9 -4 -4 -16 0 -25 8 -14 13 -17 13 -17 1 0
-8 3 -14 6 -13 3 1 8 -2 9 -8 8 -23 25 -36 32 -24 12 19 32 -1 27 -27 -2 -13
0 -24 5 -24 5 0 6 -5 2 -12 -4 -7 -3 -8 4 -4 6 4 9 14 5 24 -3 11 1 9 12 -6
l17 -23 2459 2 c1444 1 2462 5 2465 10 3 5 10 7 15 4 5 -3 6 1 3 9 -3 9 -1 16
5 16 6 0 11 -4 11 -10 0 -5 5 -10 12 -10 9 0 9 3 0 12 -17 17 -15 39 3 32 8
-4 13 -9 11 -13 -3 -4 4 -7 15 -7 16 0 15 3 -9 22 -15 12 -24 25 -20 29 13 13
43 11 56 -4 11 -14 12 -13 3 5 -6 12 -7 25 -3 30 4 5 -1 3 -10 -5 -15 -11 -17
-10 -15 8 0 11 5 17 10 14 4 -3 7 2 5 10 -4 20 44 96 61 97 11 0 11 -4 -2 -18
-19 -21 -22 -32 -7 -32 5 0 9 6 7 13 -1 6 3 11 8 10 6 -1 11 12 11 28 1 16 -3
29 -8 29 -5 0 -6 -5 -3 -10 3 -5 -1 -10 -9 -10 -14 0 -14 3 -4 20 7 11 18 18
24 16 7 -3 10 3 7 14 -3 10 2 29 11 42 9 14 13 29 9 34 -5 5 1 1 13 -9 17 -14
21 -14 21 -2 0 8 -4 12 -8 10 -4 -3 -9 1 -12 9 -8 21 22 58 42 52 13 -5 13 -3
-2 8 -12 10 -15 16 -7 21 6 4 9 13 6 21 -3 8 -1 14 3 14 5 0 12 -6 14 -12 4
-10 6 -10 6 0 1 7 6 10 13 6 6 -4 8 -3 4 4 -3 6 4 20 16 31 12 12 18 21 14 21
-4 0 -18 -11 -31 -25 -14 -16 -26 -22 -30 -15 -3 5 -1 10 4 10 6 0 11 11 11
24 0 14 5 28 10 31 6 4 8 11 5 16 -11 17 4 9 26 -13 l21 -23 -12 25 c-7 14
-18 28 -24 32 -8 5 -8 10 1 19 6 6 9 19 6 28 -4 14 -3 14 7 1 10 -12 11 -11 6
9 -4 18 -2 21 7 12 14 -14 27 -14 27 0 0 5 -4 8 -9 5 -5 -3 -11 1 -15 9 -7 20
12 29 30 14 12 -10 13 -9 8 5 -3 9 -14 16 -23 16 -14 0 -14 2 -1 10 13 9 13
10 0 10 -12 0 -12 2 -2 9 8 4 13 11 13 15 -3 19 0 26 10 26 8 0 8 -5 -1 -15
-16 -19 -3 -20 16 -1 12 13 11 15 -6 21 -11 4 -17 11 -14 17 4 6 10 6 17 -1 6
-6 15 -11 21 -11 5 0 1 6 -9 14 -23 17 -28 45 -9 53 8 3 14 9 14 15 0 5 -5 6
-12 2 -7 -4 -8 -3 -4 5 4 6 11 9 16 6 4 -3 14 3 21 13 12 15 12 16 -2 5 -22
-18 -33 -3 -11 14 9 8 11 12 5 8 -9 -4 -11 3 -8 27 3 18 7 44 8 57 3 24 27 43
27 21 0 -6 -4 -9 -8 -6 -4 2 -8 -6 -8 -19 0 -14 6 -27 13 -29 10 -4 11 -1 3
14 -7 13 -7 21 0 25 6 4 8 16 4 27 -5 16 -3 19 7 12 10 -6 10 -3 -1 12 -8 10
-19 22 -25 26 -6 5 -6 8 2 8 6 0 10 9 8 20 -2 11 0 18 6 15 12 -8 12 2 -2 27
-9 16 -8 19 2 13 9 -6 11 -3 6 9 -4 10 -3 15 3 11 6 -3 10 -2 10 4 0 6 6 8 14
5 8 -3 17 0 22 7 5 8 3 10 -5 4 -8 -4 -21 1 -32 14 -17 18 -17 21 -4 21 9 0
13 5 9 11 -9 15 -12 139 -3 133 4 -2 10 0 14 6 3 5 2 10 -2 10 -5 0 -9 27 -9
60 0 41 3 60 12 60 6 0 15 7 18 16 10 26 7 29 -9 8 -17 -22 -16 -22 -20 34 -1
23 2 45 8 49 6 3 7 1 3 -5 -4 -7 0 -22 8 -34 9 -12 16 -17 16 -11 0 7 -4 14
-9 18 -11 6 -10 45 1 45 4 0 8 5 8 11 0 8 -5 7 -15 -1 -24 -20 -31 -2 -7 19
12 10 22 22 22 26 0 5 -8 1 -18 -8 -17 -16 -18 -15 -18 13 0 16 3 27 8 24 5
-3 5 -10 2 -16 -4 -7 -2 -8 5 -4 6 4 9 11 6 16 -3 5 -1 19 6 31 6 12 7 19 1
15 -6 -3 -13 0 -16 6 -3 7 -3 3 0 -9 3 -13 2 -23 -3 -23 -5 0 -9 18 -10 40 -1
22 3 40 9 40 5 0 7 -8 4 -17 -4 -10 -4 -14 0 -10 4 4 14 1 22 -6 12 -9 12 -6
-1 14 -10 14 -15 33 -12 41 3 8 0 20 -8 26 -11 9 -14 8 -14 -3 0 -8 4 -12 9
-9 4 3 8 1 8 -4 0 -6 -6 -12 -13 -15 -9 -3 -13 6 -12 33 0 21 3 36 7 34 4 -2
9 0 13 6 3 5 -2 10 -12 10 -15 0 -19 9 -21 58 -3 88 -5 102 -16 102 -5 0 -7 3
-4 6 4 3 17 0 30 -7 20 -11 21 -10 11 3 -7 8 -10 17 -7 21 3 3 -5 3 -18 0 -16
-3 -19 -2 -10 5 11 7 10 11 -4 16 -12 5 -14 10 -6 18 6 6 8 17 5 24 -4 10 0
12 13 8 15 -5 16 -4 4 4 -10 8 -18 7 -28 0 -11 -9 -11 -7 -1 15 7 15 15 24 19
22 4 -2 7 2 7 10 0 13 -4 12 -19 -2 -20 -18 -25 -4 -6 15 7 7 8 12 4 12 -5 0
-3 7 4 15 9 10 9 15 1 15 -10 0 -15 -13 -12 -32 0 -5 -4 -8 -10 -8 -6 0 -8 9
-4 20 3 11 2 20 -3 20 -6 0 -9 8 -8 18 2 9 -4 28 -12 41 -15 22 -15 23 5 17
14 -5 23 -2 27 10 6 15 4 15 -11 3 -15 -12 -16 -12 -10 5 6 16 5 17 -8 6 -9
-7 -18 -10 -22 -6 -3 3 -1 6 5 6 7 0 12 5 12 11 0 5 -5 7 -12 3 -6 -4 -8 -3
-4 4 3 6 2 13 -3 16 -4 3 -8 18 -8 33 0 15 -6 29 -12 31 -8 3 -6 9 6 18 17 13
17 14 -2 7 -18 -6 -19 -5 -5 12 14 17 13 18 -5 11 -11 -4 -16 -4 -12 0 4 4 0
18 -8 31 -9 13 -13 23 -9 23 4 0 1 7 -6 15 -6 8 -9 18 -6 24 4 5 0 15 -7 23
-16 17 -16 103 0 103 20 0 23 11 3 12 -19 2 -34 -22 -25 -37 3 -5 1 -11 -4
-14 -4 -3 -9 9 -9 27 0 54 -1 57 -19 50 -11 -4 -14 -3 -9 5 4 7 2 12 -3 12 -6
0 -11 7 -11 15 0 16 -7 32 -34 80 -10 17 -20 38 -23 48 -3 9 -9 17 -14 17 -5
0 -9 8 -9 17 0 9 -8 25 -17 36 -10 11 -13 17 -7 14 7 -4 14 -1 17 6 3 9 -3 13
-17 13 -17 -1 -20 4 -18 23 2 13 0 21 -5 18 -5 -3 -14 3 -21 14 -9 14 -9 19 0
19 6 0 8 3 4 8 -4 4 -12 7 -17 7 -5 0 -9 3 -9 8 0 4 -6 20 -14 36 -9 16 -13
31 -11 33 3 3 -6 15 -20 28 -14 13 -25 20 -25 15 0 -4 -9 0 -20 10 -11 10 -17
21 -15 26 3 4 -5 16 -18 26 -21 17 -47 60 -29 49 4 -3 13 3 19 13 9 14 8 18
-3 18 -7 0 -11 -4 -9 -8 3 -3 -4 -9 -15 -12 -11 -3 -23 0 -27 5 -3 6 -1 8 5 4
6 -3 13 -2 17 4 3 5 -2 10 -12 11 -25 1 -88 75 -72 85 7 4 9 3 5 -4 -3 -6 -2
-13 4 -17 16 -10 7 45 -10 58 -13 10 -13 10 -2 -4 10 -14 10 -18 -4 -23 -9 -4
-19 -4 -22 -1 -3 3 0 5 7 5 7 0 9 5 6 10 -4 6 -11 8 -16 5 -5 -4 -9 -1 -9 5 0
6 -5 8 -12 4 -6 -4 -8 -3 -4 4 6 11 -30 52 -46 52 -5 0 -6 5 -2 11 4 8 9 7 15
-2 5 -8 9 -9 9 -3 0 5 -6 19 -14 29 -11 16 -17 17 -29 7 -13 -11 -19 -7 -38
20 -13 18 -27 35 -31 36 -4 2 -8 8 -8 13 0 6 4 8 9 5 4 -3 17 1 27 10 18 14
18 15 -3 4 -13 -6 -23 -8 -23 -4 0 3 -6 2 -13 -4 -16 -13 -28 -5 -46 30 -8 15
-17 26 -20 25 -4 -1 -21 10 -38 24 -30 25 -37 49 -18 66 4 4 5 -2 2 -15 -3
-14 -1 -20 5 -15 6 3 9 2 6 -3 -3 -5 0 -14 7 -21 10 -10 15 -9 19 4 4 9 4 18
1 21 -3 3 -5 -1 -5 -9 0 -11 -2 -11 -10 1 -16 24 -12 40 8 33 9 -3 14 -3 10 2
-4 4 -26 9 -48 10 -39 2 -40 1 -24 -17 21 -22 9 -24 -13 -2 -9 8 -15 26 -15
40 0 25 -12 32 -24 12 -4 -6 -3 -8 2 -5 6 3 11 -4 11 -15 2 -20 1 -20 -12 -2
-7 11 -19 19 -27 19 -7 0 -12 9 -10 19 3 14 -1 17 -13 12 -9 -3 -13 -2 -10 4
6 9 -7 14 -27 11 -4 0 -12 8 -18 19 -6 11 -15 18 -21 15 -8 -6 -14 16 -10 38
1 5 -3 6 -8 3 -5 -4 -16 3 -24 14 -7 11 -16 17 -20 14 -3 -3 6 -17 21 -30 15
-13 21 -24 15 -24 -7 0 -13 4 -13 10 0 5 -13 16 -30 25 -18 9 -27 21 -24 29 3
8 -4 20 -15 28 -12 8 -18 19 -13 24 4 4 -1 2 -10 -5 -19 -14 -23 -22 -10 -20
4 1 14 1 22 0 13 -1 13 -3 0 -12 -12 -9 -11 -10 5 -4 16 5 17 4 8 -6 -10 -10
-17 -9 -33 6 -11 10 -30 23 -43 30 -12 6 -21 17 -19 24 1 6 -3 11 -10 10 -26
-3 -36 2 -63 29 -16 15 -25 21 -21 14 7 -11 4 -12 -13 -3 -11 7 -21 17 -21 24
0 7 -4 6 -10 -3 -8 -12 -10 -11 -10 7 0 13 -8 24 -20 28 -11 4 -17 11 -14 17
5 7 2 8 -6 3 -10 -6 -7 -12 11 -26 24 -18 24 -18 2 -12 -13 3 -23 9 -23 14 0
5 -3 8 -7 8 -26 -4 -34 2 -28 24 7 22 7 22 -9 2 l-16 -20 7 20 c6 18 5 19 -11
5 -16 -13 -20 -12 -37 9 -10 13 -16 27 -13 32 3 5 0 9 -6 9 -7 0 -9 -9 -6 -22
3 -13 3 -18 0 -11 -3 7 -21 15 -39 19 -21 4 -32 11 -29 19 3 7 -2 15 -10 18
-10 4 -13 1 -9 -9 4 -10 0 -12 -10 -8 -10 3 -13 12 -9 22 5 15 4 15 -12 3 -15
-13 -17 -12 -12 12 3 15 0 27 -5 27 -5 0 -9 -8 -7 -17 2 -13 -3 -17 -17 -16
-35 5 -49 9 -73 21 -12 7 -28 10 -34 6 -7 -5 -9 -2 -6 8 4 8 2 21 -4 29 -8 11
-9 11 -5 -3 3 -9 -1 -19 -9 -22 -10 -4 -12 -2 -8 6 5 8 2 9 -9 5 -9 -3 -19 -2
-22 3 -3 5 -12 7 -19 4 -19 -7 -48 25 -43 48 3 10 1 15 -5 12 -5 -4 -8 -17 -5
-30 3 -15 0 -21 -7 -16 -11 7 -28 11 -58 14 -10 1 -18 6 -18 11 0 4 -4 6 -8 3
-4 -2 -14 -1 -22 4 -9 5 -19 5 -27 -2 -10 -8 -12 -7 -7 6 3 9 9 16 13 16 4 0
8 7 8 15 0 10 -8 6 -24 -11 -19 -20 -26 -23 -43 -14 -11 6 -20 8 -20 4 0 -3
-6 -1 -13 5 -8 6 -17 8 -20 4 -13 -12 -7 13 6 27 10 12 9 12 -5 1 -10 -7 -18
-9 -18 -4 0 6 -10 9 -22 9 -13 -1 -32 5 -43 13 -18 15 -19 15 -7 0 6 -9 9 -19
6 -22 -4 -3 5 -4 20 -1 20 3 26 0 26 -13 0 -11 -3 -14 -8 -8 -4 6 -15 11 -24
12 -35 1 -39 3 -32 15 5 7 3 8 -7 2 -21 -13 -59 -16 -59 -5 0 6 6 8 13 5 7 -2
21 1 31 9 16 12 16 13 -6 12 -12 0 -28 -3 -34 -8 -7 -4 -15 0 -18 10 -6 14 -9
14 -27 -5 -20 -23 -35 -30 -24 -12 8 12 -5 13 -25 0 -9 -5 -19 -5 -27 2 -9 7
-13 7 -13 -1 0 -6 -5 -11 -12 -11 -8 0 -6 7 5 18 15 14 19 15 26 3 6 -9 11
-10 15 -2 4 6 2 11 -4 11 -6 0 -9 4 -6 8 2 4 -4 8 -14 8 -11 0 -17 -2 -15 -5
5 -5 -26 -30 -38 -31 -5 0 -5 5 -2 10 3 6 1 10 -4 10 -6 0 -11 -5 -11 -12 0
-6 -6 -3 -14 8 -12 16 -17 17 -28 6 -11 -11 -10 -12 5 -7 12 5 17 2 17 -11 0
-12 -3 -15 -8 -8 -4 6 -22 10 -39 8 -18 -1 -33 2 -33 7 0 5 -5 9 -11 9 -5 0
-8 -4 -5 -8 2 -4 -4 -8 -15 -8 -11 0 -18 5 -15 11 2 7 -1 12 -7 13 -7 0 -22 3
-35 6 -30 7 -52 -2 -52 -21 0 -8 -5 -11 -10 -8 -7 4 -7 12 0 25 6 10 6 21 2
24 -5 3 -9 -1 -10 -9z m91 -24 c4 -1 7 -6 7 -12 0 -8 -5 -8 -15 1 -8 7 -15 8
-15 3 0 -5 -9 -9 -20 -9 -11 0 -20 3 -20 6 0 13 14 19 34 15 12 -2 24 -4 29
-4z m-265 -26 c-3 -3 -9 2 -12 12 -6 14 -5 15 5 6 7 -7 10 -15 7 -18z m116 17
c3 -5 -1 -9 -9 -9 -8 0 -15 4 -15 9 0 4 4 8 9 8 6 0 12 -4 15 -8z m496 -22 c0
-3 -8 -6 -19 -6 -15 0 -17 3 -8 18 8 13 13 14 19 5 4 -7 8 -14 8 -17z m-1620
-255 c-7 -9 -15 -13 -19 -10 -3 3 1 10 9 15 21 14 24 12 10 -5z m-616 -390 c3
-8 2 -14 -2 -14 -19 3 -25 -2 -12 -11 12 -7 10 -9 -7 -7 -21 1 -21 8 0 35 12
15 14 15 21 -3z m4016 -235 c0 -5 -4 -10 -10 -10 -5 0 -10 5 -10 10 0 6 5 10
10 10 6 0 10 -4 10 -10z m-2260 -246 c0 -7 8 -15 18 -19 14 -5 15 -4 5 6 -17
17 -16 26 2 26 8 0 12 -4 9 -9 -3 -4 -1 -8 5 -8 5 0 13 5 16 10 9 14 37 9 53
-10 11 -13 11 -13 7 0 -4 13 8 15 77 14 68 -1 83 -4 82 -16 -1 -16 20 -18 33
-3 4 4 1 5 -7 0 -12 -6 -13 -5 -2 6 10 10 14 11 25 0 10 -10 8 -15 -7 -26 -18
-13 -18 -14 2 -12 11 0 18 5 16 9 -3 4 -1 8 5 8 6 0 8 7 4 16 -5 13 -2 15 13
7 10 -5 29 -8 42 -7 12 0 22 -2 22 -5 0 -4 17 -8 37 -9 20 -2 43 -11 51 -20
13 -16 13 -15 7 3 -5 15 -3 17 6 8 6 -6 18 -9 25 -6 8 3 14 0 14 -7 0 -6 -4
-9 -9 -5 -15 9 -25 -15 -12 -28 9 -9 10 -7 5 7 -5 13 -4 17 4 12 6 -3 14 -1
18 5 4 8 9 7 15 -2 5 -9 2 -16 -9 -21 -11 -5 -6 -6 13 -4 17 2 37 -2 45 -7 13
-9 13 -9 2 3 -7 8 -18 15 -24 15 -6 0 -13 7 -15 15 -3 9 -1 11 4 5 9 -11 29
-18 56 -19 9 0 17 -4 17 -8 0 -4 6 -5 13 -3 6 3 18 1 26 -4 10 -7 11 -14 2
-32 l-12 -24 17 23 c20 26 36 29 27 5 -6 -15 -4 -16 9 -5 16 13 48 7 48 -10 0
-5 5 -6 10 -3 6 3 10 1 10 -4 0 -6 5 -11 11 -11 5 0 7 6 3 13 -4 6 2 4 14 -6
12 -11 26 -16 33 -11 8 4 10 3 5 -4 -4 -7 -2 -12 3 -12 6 0 11 -6 11 -13 0 -7
10 -18 23 -26 22 -14 22 -14 3 8 -11 11 -16 24 -13 28 4 3 7 1 7 -6 0 -7 4
-10 9 -7 5 3 12 -1 15 -10 3 -8 11 -12 17 -8 8 5 9 3 4 -6 -6 -10 -4 -12 9 -7
14 6 17 3 12 -9 -5 -13 -4 -14 7 -6 10 8 20 5 41 -13 15 -13 33 -26 39 -29 9
-5 9 -8 0 -12 -20 -9 -15 -20 9 -21 16 -2 19 0 9 6 -9 6 -10 11 -2 15 6 4 11
2 11 -4 0 -6 11 -15 25 -20 14 -5 25 -16 25 -24 0 -7 8 -24 18 -36 14 -18 19
-19 19 -7 0 9 -4 14 -9 11 -4 -3 -8 -3 -8 0 0 2 -3 12 -7 22 -7 20 -2 16 48
-28 10 -10 23 -18 27 -18 5 0 18 -11 30 -25 12 -14 26 -25 32 -25 5 0 6 -8 3
-17 -5 -12 -2 -15 10 -10 11 4 20 -1 27 -14 6 -11 16 -17 23 -14 7 4 3 -1 -8
-11 -17 -14 -17 -16 -2 -11 25 9 47 -2 40 -21 -5 -12 -2 -14 12 -9 16 7 16 5
4 -10 -8 -9 -9 -14 -2 -10 17 11 74 -48 60 -62 -8 -8 -4 -9 12 -6 12 2 19 0
16 -5 -3 -5 5 -19 18 -32 46 -45 86 -105 77 -114 -6 -6 -5 -15 1 -24 9 -12 10
-12 5 3 -4 12 -2 17 6 15 7 -3 13 -11 13 -19 0 -8 6 -17 14 -20 17 -7 25 -49
9 -49 -6 0 -8 -3 -5 -6 4 -4 14 -1 23 7 15 12 16 11 9 -10 -6 -19 -4 -23 8
-18 11 4 13 0 9 -15 -3 -13 -1 -19 5 -15 6 4 16 0 23 -8 11 -13 10 -15 -6 -9
-13 4 -10 -2 9 -16 15 -12 25 -26 21 -31 -3 -5 0 -9 5 -9 6 0 11 -5 11 -11 0
-5 -4 -8 -9 -4 -5 3 -13 0 -17 -6 -5 -8 -3 -9 6 -4 10 6 12 4 6 -10 -5 -14 -4
-16 7 -7 17 14 31 4 17 -12 -5 -7 -5 -17 2 -26 8 -12 9 -12 4 3 -9 27 3 20 16
-10 27 -67 15 -78 -81 -78 -108 1 -121 -3 -121 -31 0 -18 6 -24 23 -25 34 0
111 -11 116 -15 2 -2 -1 -15 -7 -29 -7 -14 -17 -37 -23 -52 -6 -16 -18 -40
-26 -55 -8 -16 -11 -28 -6 -28 4 0 1 -6 -7 -13 -8 -7 -16 -21 -18 -32 -3 -19
-35 -91 -73 -165 -9 -19 -18 -39 -20 -45 -1 -5 -13 -28 -26 -49 -28 -43 -27
-44 -69 37 -13 26 -22 53 -18 59 4 7 3 8 -4 4 -11 -7 -14 -3 -16 27 -1 6 -6
17 -12 22 -18 16 -47 102 -39 116 5 7 4 10 -2 6 -9 -6 -20 7 -28 33 -1 3 -13
31 -28 64 -15 32 -25 62 -22 66 3 5 -2 16 -11 24 -14 15 -13 16 13 17 105 2
145 17 123 45 -6 6 -6 15 -2 20 4 4 -1 2 -10 -5 -15 -11 -18 -11 -19 0 0 10
-2 11 -6 1 -2 -6 -10 -9 -16 -5 -13 8 -217 10 -222 2 -2 -3 -17 -4 -32 -3 -22
1 -29 -3 -30 -17 -2 -24 12 -32 54 -31 28 1 41 -6 69 -36 19 -20 32 -43 29
-49 -2 -7 -1 -13 4 -13 12 0 54 -97 47 -109 -4 -6 -3 -11 2 -11 5 0 19 -21 32
-47 12 -27 28 -60 36 -74 7 -14 11 -29 7 -33 -3 -3 -1 -6 5 -6 12 0 34 -68 26
-81 -3 -5 1 -6 8 -4 9 4 14 -3 15 -17 1 -12 10 -28 19 -35 9 -6 14 -16 11 -20
-10 -16 48 -62 64 -52 20 12 32 11 23 -3 -4 -7 -3 -8 4 -4 7 4 12 14 12 22 0
8 5 12 10 9 8 -5 12 7 9 31 0 3 7 11 17 18 9 7 14 18 11 23 -4 6 0 13 8 17 8
3 15 14 15 24 0 11 7 25 15 32 8 7 12 16 9 21 -3 5 0 9 6 9 6 0 8 5 5 10 -4 6
0 22 9 35 9 13 16 30 16 38 0 7 6 19 13 26 6 6 13 16 13 22 1 5 2 14 3 20 0 5
5 7 11 4 6 -3 7 1 4 9 -3 9 -1 16 6 16 6 0 9 4 5 9 -7 12 86 192 98 188 5 -1
7 -7 5 -12 -2 -6 -7 -9 -12 -7 -5 2 -4 -4 4 -12 14 -18 25 -22 15 -6 -3 6 -2
10 3 10 14 0 21 -35 10 -54 -5 -9 -14 -13 -20 -10 -7 5 -8 2 -3 -5 5 -9 10
-10 18 -2 15 15 23 14 25 -4 1 -8 3 -22 4 -30 1 -8 5 -15 10 -15 4 0 8 -10 7
-22 0 -22 -1 -22 -11 2 -6 14 -12 31 -14 38 -5 27 -12 23 -10 -7 0 -16 4 -27
8 -25 3 2 8 -6 10 -18 2 -13 9 -22 15 -21 12 3 12 -15 0 -34 -4 -6 -2 -15 4
-19 8 -5 9 -3 4 6 -5 8 -4 11 2 7 6 -4 10 -21 9 -38 -1 -16 1 -32 6 -35 14 -9
9 -21 -14 -32 l-23 -11 24 2 c20 2 24 -3 26 -32 l3 -33 -19 28 c-16 25 -18 26
-16 7 0 -12 5 -19 9 -17 4 3 8 0 8 -7 0 -6 8 -18 18 -26 16 -13 15 -14 -5 -8
-12 3 -24 1 -28 -4 -4 -7 1 -8 11 -4 13 5 15 3 9 -7 -5 -9 -4 -11 3 -6 7 4 12
0 13 -11 1 -10 2 -34 3 -53 2 -19 -2 -41 -7 -47 -6 -9 -5 -13 4 -13 11 0 11
-2 -1 -10 -13 -9 -13 -10 0 -10 13 0 13 -1 0 -10 -13 -9 -13 -10 0 -10 11 -1
10 -4 -4 -15 -11 -8 -15 -15 -9 -15 20 0 11 -48 -11 -58 -21 -11 -21 -11 2
-11 18 -1 21 -5 14 -18 -4 -10 -7 -28 -6 -41 0 -12 -3 -25 -9 -29 -6 -4 -7 -1
-2 7 5 9 4 11 -4 6 -9 -6 -9 -11 0 -22 14 -17 -2 -19 -20 -1 -10 10 -11 9 -6
-5 4 -10 15 -18 24 -18 12 0 10 -5 -9 -21 -18 -15 -20 -19 -6 -15 14 5 17 2
12 -11 -4 -9 -9 -32 -12 -52 -3 -20 -9 -40 -12 -46 -4 -5 -7 -19 -8 -30 -1
-11 -7 -33 -14 -50 -7 -16 -12 -36 -11 -42 1 -7 -3 -13 -9 -13 -6 0 -8 5 -5
10 3 6 1 10 -4 10 -15 0 -14 -13 2 -29 10 -11 9 -13 -5 -8 -10 3 -20 1 -24 -5
-4 -6 -3 -8 3 -5 6 4 14 0 17 -9 4 -12 2 -15 -9 -10 -8 3 -14 0 -12 -7 1 -7
-4 -11 -11 -9 -8 1 -11 -2 -7 -8 5 -8 11 -7 21 1 19 15 18 -1 -2 -29 -8 -12
-12 -22 -7 -22 4 0 -3 -10 -17 -21 -14 -12 -18 -19 -9 -16 14 5 14 2 0 -28 -9
-18 -20 -31 -24 -28 -4 3 -4 10 2 17 7 8 6 17 -1 26 -8 12 -9 12 -4 -2 3 -10
1 -20 -4 -23 -7 -4 -6 -13 0 -26 9 -15 7 -19 -7 -19 -15 0 -16 -2 -3 -10 13
-8 12 -10 -5 -11 -11 -1 -24 -1 -28 0 -5 1 -6 -3 -2 -9 3 -6 11 -8 16 -5 5 4
9 1 9 -4 0 -6 -5 -11 -11 -11 -5 0 -7 -4 -4 -10 3 -5 -2 -10 -12 -10 -15 0
-16 -2 -3 -10 8 -5 13 -10 10 -11 -34 -6 -43 -9 -48 -15 -4 -4 1 -4 11 -1 9 4
17 4 17 2 0 -11 -46 -75 -54 -75 -5 0 -3 6 3 14 9 11 9 16 -1 22 -7 4 -10 3
-5 -1 4 -5 -1 -17 -10 -28 -10 -11 -13 -17 -6 -14 6 4 14 3 18 -3 3 -5 2 -10
-4 -10 -6 0 -18 -16 -27 -35 -9 -19 -21 -35 -27 -35 -5 0 -2 9 8 20 28 31 14
29 -19 -3 -16 -15 -22 -25 -14 -22 9 4 19 1 23 -5 4 -6 1 -9 -7 -8 -7 2 -12
-2 -11 -8 1 -7 -18 -10 -53 -9 -30 1 -54 -3 -54 -7 0 -5 -5 -6 -11 -2 -10 6
-111 9 -144 4 -9 -1 -98 -1 -190 1 -22 0 -44 0 -50 -1 -9 -1 -96 -1 -190 1
-22 0 -44 0 -50 -1 -5 -1 -26 -2 -45 -1 -86 2 -106 3 -115 1 -9 -1 -96 -1
-190 1 -22 0 -44 0 -50 -1 -9 -1 -96 -1 -190 1 -22 0 -44 0 -50 -1 -9 -1 -96
-1 -190 1 -22 0 -44 0 -50 0 -9 -2 -178 -1 -270 0 -22 1 -44 0 -50 -1 -5 -1
-50 -1 -100 0 -116 2 -168 2 -180 0 -5 -1 -14 -2 -18 -1 -30 5 -135 3 -144 -2
-6 -4 -19 -4 -29 0 -16 6 -73 8 -91 3 -5 -1 -12 -2 -16 -1 -4 1 -66 2 -138 2
-71 1 -129 5 -129 10 0 5 -5 9 -11 9 -5 0 -7 -4 -4 -10 9 -15 0 -12 -23 9 -12
10 -22 23 -22 30 0 6 -8 19 -17 29 -10 10 -39 49 -66 87 l-47 70 22 18 c22 18
22 18 1 8 -30 -15 -32 -14 -28 8 2 11 -4 26 -13 33 -15 12 -16 11 -3 -4 7 -10
9 -18 5 -18 -5 0 -15 9 -22 21 -8 12 -9 18 -3 14 18 -10 13 4 -9 28 -11 12
-18 27 -15 35 2 7 -2 15 -10 18 -8 4 -15 10 -15 15 0 6 9 5 21 -1 11 -7 23 -9
27 -6 3 3 0 6 -7 6 -7 0 -9 5 -5 12 4 6 3 8 -3 5 -5 -3 -19 1 -31 9 -23 16
-29 34 -11 34 5 0 8 -4 4 -9 -3 -5 -1 -12 4 -15 5 -4 8 1 7 10 -1 9 -10 20
-19 26 -9 5 -17 13 -17 18 0 5 -5 21 -12 37 -19 48 -20 63 0 57 9 -2 7 1 -5 7
-25 13 -29 24 -11 35 7 5 8 3 3 -6 -5 -9 -4 -11 3 -6 20 12 13 28 -9 21 -14
-5 -19 -3 -15 3 3 6 3 12 -1 15 -5 2 -2 2 5 0 8 -1 12 3 9 9 -2 7 -9 12 -14
11 -5 -1 -10 4 -10 12 0 8 3 12 7 10 4 -2 7 2 7 9 0 8 -7 12 -15 8 -10 -3 -13
-1 -8 6 4 7 4 18 0 24 -5 7 -9 19 -11 28 -12 71 -11 79 2 90 8 6 20 8 27 4 10
-5 10 -4 2 5 -9 9 -17 10 -31 3 -18 -10 -19 -7 -19 34 1 28 7 49 16 55 12 8
11 9 -5 5 -19 -6 -21 -1 -21 57 0 34 5 65 10 69 8 5 7 8 -1 8 -6 0 -11 13 -11
30 1 24 4 28 15 19 11 -9 12 -8 7 5 -3 9 -9 16 -13 16 -4 0 -8 16 -8 35 0 19
4 35 9 35 4 0 8 5 8 11 0 5 -4 8 -8 5 -5 -3 -9 1 -9 9 0 16 9 19 21 8 10 -11
37 -12 30 -2 -3 5 -9 7 -14 4 -14 -9 -28 27 -23 60 2 17 5 46 6 65 1 19 5 40
8 45 3 6 9 23 13 38 5 21 4 27 -5 21 -7 -4 -5 3 4 15 8 13 13 29 11 36 -3 7 2
15 10 18 9 4 16 12 16 19 0 9 -3 8 -10 -2 -6 -9 -10 -10 -10 -3 0 6 5 15 11
19 8 4 7 9 -2 15 -10 6 -11 9 -1 9 6 0 12 7 12 16 0 9 6 14 13 11 7 -3 13 5
13 20 2 22 1 23 -12 6 -13 -16 -13 -16 -5 7 5 14 13 34 17 45 4 11 6 24 5 28
0 4 7 10 16 14 23 8 33 24 25 38 -13 21 -10 35 14 57 24 23 33 45 14 33 -12
-7 27 61 50 88 8 10 15 21 15 25 1 4 8 21 17 37 l17 30 10 -25 c11 -24 11 -23
6 6 -4 22 -1 37 10 48 20 19 29 21 19 4 -4 -8 -2 -8 7 1 11 11 11 14 1 18 -9
3 -5 12 13 29 14 13 23 24 19 24 -4 0 1 9 11 20 10 11 22 17 26 14 5 -3 7 1 4
8 -3 7 15 35 40 61 25 27 45 54 45 60 1 7 7 1 15 -13 l15 -25 -4 27 c-5 29 8
47 18 26 4 -7 4 -3 2 10 -4 20 -2 21 12 10 13 -11 14 -11 8 0 -10 17 43 75 62
67 7 -2 10 0 7 5 -4 6 1 18 11 27 16 16 16 16 9 -7 -7 -24 -7 -24 8 -5 8 11
13 24 9 29 -3 5 2 7 11 3 12 -4 14 -2 10 10 -4 11 -2 14 5 9 7 -4 12 -1 12 9
0 9 5 13 10 10 6 -4 8 -10 6 -14 -3 -4 1 -8 9 -8 8 0 13 5 12 11 -1 6 8 10 21
8 12 -2 22 1 22 6 0 10 -30 9 -48 -1 -8 -6 -10 -3 -6 8 4 9 12 14 19 11 7 -2
15 4 18 15 3 10 11 19 17 19 8 0 9 -5 4 -13 -5 -7 -2 -5 7 5 9 9 19 14 23 11
3 -4 6 2 6 12 0 17 1 17 22 -1 12 -10 18 -14 15 -7 -4 6 -4 13 0 16 5 2 2 2
-5 0 -8 -1 -12 3 -9 9 2 7 12 12 22 10 9 -2 14 1 11 6 -3 5 1 15 8 21 11 9 16
9 22 0 4 -8 3 -9 -4 -5 -18 11 -14 0 6 -15 9 -7 14 -9 10 -5 -12 14 11 36 30
29 14 -4 15 -3 2 6 -8 5 -11 13 -7 17 3 4 15 1 24 -7 16 -12 17 -12 6 2 -13
16 -8 29 9 29 5 0 6 -6 3 -12 -4 -7 2 -2 13 11 19 23 20 23 25 5 4 -17 5 -16
6 3 1 17 5 21 18 16 12 -5 14 -3 8 7 -5 8 -4 11 3 6 6 -3 16 0 24 7 11 10 16
10 30 -4 9 -10 14 -20 10 -23 -3 -3 -3 -6 0 -6 3 0 11 7 18 16 8 8 9 14 4 13
-19 -3 -34 1 -34 11 0 6 9 10 20 10 11 0 20 5 20 10 0 7 8 6 23 -1 21 -12 21
-11 7 6 -9 11 -10 16 -2 11 6 -4 12 -3 12 2 0 5 6 9 13 10 39 5 54 8 72 18 11
6 27 10 35 9 8 -1 21 4 29 9 12 9 13 7 8 -6 -3 -10 -2 -18 3 -18 6 0 10 9 10
20 0 20 1 20 24 3 13 -10 22 -21 19 -25 -2 -4 4 -5 13 -1 14 5 12 8 -10 20
-28 14 -36 29 -11 20 8 -4 17 -2 20 4 4 5 11 6 17 3 6 -4 5 -10 -3 -15 -8 -5
-9 -9 -3 -9 5 0 20 9 31 19 12 11 23 17 27 14 3 -3 12 0 21 7 18 15 20 -1 3
-18 -9 -9 -9 -12 0 -12 7 0 12 5 12 11 0 8 6 7 18 -2 15 -12 16 -12 5 2 -13
16 -8 29 9 29 5 0 6 -6 2 -12 -6 -10 -4 -10 7 0 7 6 18 12 24 12 5 0 4 -4 -3
-9 -11 -7 -11 -9 2 -14 9 -4 15 -3 15 1 -4 24 3 33 21 27 11 -3 20 -3 20 2 0
5 9 9 20 9 11 0 20 -6 20 -12z m-2222 -21 c-14 -17 -25 -16 -25 1 0 8 8 14 18
13 14 -1 15 -4 7 -14z m2002 3 c0 -3 -4 -8 -10 -11 -5 -3 -10 -1 -10 4 0 6 5
11 10 11 6 0 10 -2 10 -4z m2790 -121 c7 -8 8 -15 2 -15 -5 0 -15 7 -22 15 -7
8 -8 15 -2 15 5 0 15 -7 22 -15z m-4928 -62 c-6 -3 -10 -9 -6 -14 3 -5 -2 -9
-10 -9 -10 0 -13 -6 -9 -17 6 -16 5 -16 -10 -5 -15 13 -14 16 11 37 15 13 29
21 32 18 3 -3 -1 -8 -8 -10z m1608 -17 c0 -3 -4 -8 -10 -11 -5 -3 -10 -1 -10
4 0 6 5 11 10 11 6 0 10 -2 10 -4z m-1655 -76 c-3 -5 -11 -10 -16 -10 -6 0 -7
5 -4 10 3 6 11 10 16 10 6 0 7 -4 4 -10z m-243 -517 c-6 -2 -9 -10 -6 -15 4
-7 2 -8 -5 -4 -13 9 -5 26 12 25 9 0 8 -2 -1 -6z m1118 -287 c0 -3 -4 -8 -10
-11 -5 -3 -10 -1 -10 4 0 6 5 11 10 11 6 0 10 -2 10 -4z m-1270 -516 c0 -5 -2
-10 -4 -10 -3 0 -8 5 -11 10 -3 6 -1 10 4 10 6 0 11 -4 11 -10z m-3 -283 c0
-8 -6 -14 -13 -14 -7 0 -10 6 -7 14 3 7 8 13 12 13 4 0 8 -6 8 -13z m5838
-257 c3 -5 1 -10 -4 -10 -6 0 -11 5 -11 10 0 6 2 10 4 10 3 0 8 -4 11 -10z
m-15 -154 c0 -3 -4 -8 -10 -11 -5 -3 -10 -1 -10 4 0 6 5 11 10 11 6 0 10 -2
10 -4z"/>
<path d="M3982 4735 c4 -4 3 -14 -3 -21 -7 -9 -6 -14 3 -20 7 -4 10 -4 6 1 -4
4 -3 14 3 21 7 9 6 14 -3 20 -7 4 -10 4 -6 -1z"/>
<path d="M3686 4717 c3 -10 9 -15 12 -12 3 3 0 11 -7 18 -10 9 -11 8 -5 -6z"/>
<path d="M3810 4719 c0 -5 5 -7 10 -4 6 3 10 8 10 11 0 2 -4 4 -10 4 -5 0 -10
-5 -10 -11z"/>
<path d="M3906 4718 c3 -5 9 -7 12 -4 3 3 12 0 21 -6 13 -10 14 -10 4 2 -15
16 -46 23 -37 8z"/>
<path d="M4125 4712 c-5 -4 -12 -16 -13 -27 -4 -23 0 -20 17 13 12 24 12 26
-4 14z"/>
<path d="M3735 4700 c3 -5 8 -10 11 -10 2 0 4 5 4 10 0 6 -5 10 -11 10 -5 0
-7 -4 -4 -10z"/>
<path d="M3836 4698 c3 -4 11 -5 19 -1 21 7 19 12 -4 10 -11 0 -18 -5 -15 -9z"/>
<path d="M4150 4700 c0 -5 5 -10 10 -10 6 0 10 5 10 10 0 6 -4 10 -10 10 -5 0
-10 -4 -10 -10z"/>
<path d="M4200 4680 c-6 -11 -8 -20 -6 -20 3 0 10 9 16 20 6 11 8 20 6 20 -3
0 -10 -9 -16 -20z"/>
<path d="M3530 4681 c0 -6 4 -13 10 -16 6 -3 7 1 4 9 -7 18 -14 21 -14 7z"/>
<path d="M3349 4653 c-13 -16 -12 -17 4 -4 9 7 17 15 17 17 0 8 -8 3 -21 -13z"/>
<path d="M3371 4647 c-13 -21 -12 -21 5 -5 10 10 16 20 13 22 -3 3 -11 -5 -18
-17z"/>
<path d="M3286 4635 c-11 -8 -15 -15 -9 -15 7 0 15 5 18 10 4 6 11 7 17 4 7
-4 8 -2 4 4 -9 14 -7 15 -30 -3z"/>
<path d="M3395 4640 c-3 -5 -1 -10 4 -10 6 0 11 5 11 10 0 6 -2 10 -4 10 -3 0
-8 -4 -11 -10z"/>
<path d="M4410 4638 c0 -3 9 -6 20 -5 11 1 20 5 20 9 0 3 -9 6 -20 5 -11 -1
-20 -5 -20 -9z"/>
<path d="M3330 4619 c0 -5 5 -7 10 -4 6 3 10 8 10 11 0 2 -4 4 -10 4 -5 0 -10
-5 -10 -11z"/>
<path d="M4506 4601 c-14 -15 -15 -21 -4 -27 7 -4 10 -4 6 1 -4 4 -3 14 3 22
10 11 14 10 26 -4 13 -16 13 -16 3 5 -13 27 -13 27 -34 3z"/>
<path d="M3275 4600 c3 -5 8 -10 11 -10 2 0 4 5 4 10 0 6 -5 10 -11 10 -5 0
-7 -4 -4 -10z"/>
<path d="M3235 4580 c3 -5 8 -10 11 -10 2 0 4 5 4 10 0 6 -5 10 -11 10 -5 0
-7 -4 -4 -10z"/>
<path d="M3150 4570 c-11 -7 -11 -10 -2 -10 8 0 10 -5 6 -12 -4 -7 -3 -9 1 -5
7 6 17 37 12 37 -1 0 -9 -5 -17 -10z"/>
<path d="M4515 4560 c-3 -5 -1 -10 4 -10 6 0 11 5 11 10 0 6 -2 10 -4 10 -3 0
-8 -4 -11 -10z"/>
<path d="M4607 4539 c7 -7 15 -10 18 -7 3 3 -2 9 -12 12 -14 6 -15 5 -6 -5z"/>
<path d="M3073 4515 c0 -8 4 -12 9 -9 4 3 8 9 8 15 0 5 -4 9 -8 9 -5 0 -9 -7
-9 -15z"/>
<path d="M4635 4521 c-3 -5 -2 -12 3 -15 5 -3 9 1 9 9 0 17 -3 19 -12 6z"/>
<path d="M4670 4499 c0 -5 5 -7 10 -4 6 3 10 8 10 11 0 2 -4 4 -10 4 -5 0 -10
-5 -10 -11z"/>
<path d="M4750 4502 c0 -7 5 -12 11 -12 5 0 7 -5 4 -10 -4 -6 -1 -9 7 -8 7 2
12 -2 11 -9 -2 -7 4 -10 13 -6 8 3 14 6 12 7 -2 0 -15 12 -30 25 -16 14 -28
19 -28 13z"/>
<path d="M2959 4468 c-5 -18 -6 -38 -1 -34 7 8 12 36 6 36 -2 0 -4 -1 -5 -2z"/>
<path d="M4740 4460 c8 -5 20 -10 25 -10 6 0 3 5 -5 10 -8 5 -19 10 -25 10 -5
0 -3 -5 5 -10z"/>
<path d="M2895 4419 c-4 -6 -5 -12 -2 -15 2 -3 7 2 10 11 7 17 1 20 -8 4z"/>
<path d="M2870 4401 c0 -6 4 -13 10 -16 6 -3 7 1 4 9 -7 18 -14 21 -14 7z"/>
<path d="M4950 4365 c0 -5 5 -17 10 -25 5 -8 10 -10 10 -5 0 6 -5 17 -10 25
-5 8 -10 11 -10 5z"/>
<path d="M2771 4324 c0 -11 3 -14 6 -6 3 7 2 16 -1 19 -3 4 -6 -2 -5 -13z"/>
<path d="M4984 4328 c3 -15 26 -23 26 -8 0 6 -4 9 -9 6 -5 -4 -12 -1 -14 4 -3
6 -4 5 -3 -2z"/>
<path d="M2735 4301 c-3 -5 -2 -12 3 -15 5 -3 9 1 9 9 0 17 -3 19 -12 6z"/>
<path d="M5011 4290 c0 -8 4 -22 9 -30 12 -18 12 -2 0 25 -6 13 -9 15 -9 5z"/>
<path d="M2659 4259 c-8 -16 -8 -24 2 -33 9 -8 10 -8 5 1 -9 16 4 44 17 36 6
-3 7 -1 3 5 -10 16 -14 15 -27 -9z"/>
<path d="M5050 4256 c0 -2 8 -10 18 -17 15 -13 16 -12 3 4 -13 16 -21 21 -21
13z"/>
<path d="M5180 4136 c0 -2 7 -7 16 -10 8 -3 12 -2 9 4 -6 10 -25 14 -25 6z"/>
<path d="M2521 4116 c-9 -11 -9 -16 1 -22 7 -4 10 -4 6 1 -4 4 -3 14 3 22 6 7
9 13 6 13 -2 0 -10 -6 -16 -14z"/>
<path d="M2485 4081 c-3 -5 0 -13 6 -17 8 -5 9 -3 4 6 -6 9 -1 10 16 5 19 -5
21 -4 9 4 -19 13 -27 14 -35 2z"/>
<path d="M5233 4050 c-1 -11 2 -22 6 -24 4 -3 7 4 6 14 -2 27 -10 33 -12 10z"/>
<path d="M2445 4030 c-3 -6 1 -7 9 -4 18 7 21 14 7 14 -6 0 -13 -4 -16 -10z"/>
<path d="M5281 4004 c0 -11 3 -14 6 -6 3 7 2 16 -1 19 -3 4 -6 -2 -5 -13z"/>
<path d="M2423 3986 c0 -11 33 -16 39 -5 2 2 1 3 -1 2 -2 -1 -11 2 -21 7 -12
6 -17 5 -17 -4z"/>
<path d="M5300 3976 c0 -2 9 -6 20 -9 11 -3 18 -1 14 4 -5 9 -34 13 -34 5z"/>
<path d="M4565 3940 c-3 -6 -4 -14 -1 -18 3 -5 -4 -18 -14 -30 -11 -12 -20
-28 -20 -37 0 -8 -5 -15 -11 -15 -5 0 -7 -4 -4 -10 3 -5 2 -10 -3 -10 -10 0
-24 -32 -26 -58 -1 -8 -9 -18 -19 -23 -9 -6 -15 -15 -11 -20 3 -6 -1 -18 -9
-27 -8 -9 -18 -32 -22 -49 -3 -18 -11 -33 -16 -33 -5 0 -9 -5 -9 -10 0 -6 -27
-67 -60 -135 -33 -69 -60 -129 -61 -133 0 -4 -6 -13 -12 -21 -6 -7 -12 -20
-13 -28 -1 -7 -8 -21 -15 -30 -7 -8 -14 -22 -15 -31 -2 -8 -9 -19 -16 -23 -7
-5 -13 -14 -14 -21 -3 -34 -5 -39 -13 -33 -6 3 -8 -3 -6 -14 2 -11 -3 -22 -12
-25 -8 -4 -13 -13 -9 -21 3 -8 1 -15 -5 -15 -6 0 -8 -4 -5 -8 3 -5 -12 -44
-34 -86 -43 -84 -45 -98 -15 -106 21 -6 46 9 38 23 -2 4 1 7 6 7 6 0 11 12 11
26 0 14 4 23 10 19 6 -3 11 -1 11 4 1 6 3 16 4 21 1 6 3 18 4 28 1 15 3 15 11
2 9 -13 10 -13 11 0 1 8 1 21 0 28 -1 7 5 15 14 18 9 4 14 12 11 19 -4 12 131
295 154 323 6 6 9 12 6 12 -3 0 19 48 49 107 30 59 55 113 55 120 0 7 5 13 10
13 6 0 10 7 10 16 0 8 12 41 27 72 15 31 26 60 25 65 -1 4 3 7 8 7 6 0 9 3 8
8 -2 10 19 59 29 65 4 3 8 20 7 38 -1 25 -6 33 -22 36 -12 1 -24 -2 -27 -7z"/>
<path d="M2372 3918 c3 -7 12 -14 22 -14 13 -2 13 -1 1 3 -8 2 -13 9 -10 14 4
5 1 9 -5 9 -7 0 -10 -6 -8 -12z"/>
<path d="M2333 3870 c-11 -16 -10 -18 2 -14 8 4 15 12 15 20 0 19 -3 18 -17
-6z"/>
<path d="M2340 3846 c0 -2 8 -10 18 -17 15 -13 16 -12 3 4 -13 16 -21 21 -21
13z"/>
<path d="M3573 3837 c-2 -4 -8 -5 -12 -2 -5 2 -6 -7 -3 -20 4 -21 10 -25 43
-25 37 0 51 -10 56 -40 6 -36 6 -220 0 -226 -3 -4 -2 -15 3 -25 7 -12 6 -20
-2 -25 -6 -4 -14 -2 -16 4 -2 7 -8 12 -14 12 -6 0 -19 10 -30 23 -11 12 -26
22 -34 22 -7 0 -21 9 -29 20 -9 11 -13 13 -9 5 7 -12 5 -13 -8 -3 -8 7 -18 10
-21 6 -4 -3 -7 1 -7 10 0 10 -5 17 -11 17 -5 0 -7 -6 -3 -12 6 -10 3 -9 -8 0
-26 21 -145 13 -187 -12 -19 -11 -31 -15 -27 -8 12 19 -2 14 -24 -10 -11 -12
-20 -18 -20 -14 0 5 -9 -2 -20 -15 -14 -17 -20 -20 -20 -9 0 10 -5 8 -13 -7
-7 -12 -16 -22 -22 -23 -5 -1 -9 -8 -7 -16 2 -8 -4 -17 -12 -20 -9 -3 -14 -10
-11 -14 3 -5 -2 -13 -10 -17 -8 -5 -17 -19 -20 -32 -8 -40 -16 -61 -23 -57 -4
2 -6 -32 -6 -76 1 -72 6 -94 36 -152 7 -14 6 -16 -4 -11 -7 4 -1 -4 14 -19 15
-15 31 -38 34 -51 3 -14 10 -22 15 -19 5 3 9 -2 9 -10 0 -9 6 -16 14 -16 8 0
16 -7 20 -15 3 -8 9 -14 13 -14 13 3 43 -13 39 -20 -3 -4 9 -6 25 -5 16 1 35
-4 43 -11 18 -19 174 -15 186 5 5 8 12 11 16 8 4 -4 18 2 32 12 13 11 29 20
35 20 5 0 20 11 33 25 29 31 54 32 55 3 1 -13 2 -27 4 -33 1 -5 3 -15 3 -20 2
-11 95 -12 128 -1 23 7 39 42 20 44 -60 7 -78 10 -82 15 -3 2 -7 26 -10 53 -3
27 -7 55 -9 62 -3 6 0 12 6 12 6 0 7 5 3 11 -3 6 -7 167 -7 357 0 191 -2 352
-4 358 -4 12 -132 14 -140 1z m-113 -322 c8 -8 20 -14 25 -14 24 -2 45 -13 45
-23 0 -6 3 -8 7 -5 9 9 84 -74 77 -85 -3 -4 0 -8 5 -8 6 0 11 -8 11 -18 0 -10
5 -23 11 -29 18 -18 18 -142 1 -188 -46 -121 -133 -184 -264 -190 -32 -2 -60
1 -64 6 -3 5 -16 9 -29 9 -12 0 -26 7 -29 16 -3 8 -10 12 -16 9 -5 -3 -10 -1
-10 4 0 6 -6 11 -12 11 -7 0 -24 14 -37 31 -29 36 -64 99 -55 99 4 0 1 7 -7
16 -18 22 -15 133 6 188 10 25 21 46 25 46 4 0 11 10 14 23 8 28 81 86 118 94
15 3 28 9 28 13 0 14 134 9 150 -5z"/>
<path d="M2313 3821 c1 -5 -7 -17 -18 -26 -19 -17 -19 -17 4 -3 27 16 39 38
22 38 -6 0 -10 -4 -8 -9z"/>
<path d="M5395 3811 c-3 -5 -2 -12 3 -15 5 -3 9 1 9 9 0 17 -3 19 -12 6z"/>
<path d="M5433 3755 c0 -8 4 -12 9 -9 5 3 6 10 3 15 -9 13 -12 11 -12 -6z"/>
<path d="M5463 3739 c-2 -23 3 -25 10 -4 4 8 3 16 -1 19 -4 3 -9 -4 -9 -15z"/>
<path d="M2270 3740 c0 -5 5 -10 11 -10 5 0 7 5 4 10 -3 6 -8 10 -11 10 -2 0
-4 -4 -4 -10z"/>
<path d="M2255 3700 c3 -5 8 -10 11 -10 2 0 4 5 4 10 0 6 -5 10 -11 10 -5 0
-7 -4 -4 -10z"/>
<path d="M2225 3680 c-3 -5 -2 -10 4 -10 5 0 13 5 16 10 3 6 2 10 -4 10 -5 0
-13 -4 -16 -10z"/>
<path d="M5435 3679 c-3 -4 2 -6 10 -5 21 3 28 13 10 13 -9 0 -18 -4 -20 -8z"/>
<path d="M2250 3659 c0 -5 5 -7 10 -4 6 3 10 8 10 11 0 2 -4 4 -10 4 -5 0 -10
-5 -10 -11z"/>
<path d="M5510 3620 c0 -5 5 -10 10 -10 6 0 10 5 10 10 0 6 -4 10 -10 10 -5 0
-10 -4 -10 -10z"/>
<path d="M2195 3591 c3 -5 1 -12 -5 -16 -5 -3 -10 -14 -9 -23 0 -14 2 -14 6
-2 3 8 12 20 19 26 13 10 12 13 -1 18 -9 3 -13 2 -10 -3z"/>
<path d="M2235 3582 c4 -7 2 -18 -3 -25 -15 -19 -10 -44 7 -43 9 1 15 -5 13
-12 -2 -9 2 -11 10 -5 7 4 36 8 64 9 l51 1 2 -110 c0 -60 3 -113 6 -117 3 -5
2 -11 -2 -13 -5 -3 -6 -61 -3 -129 7 -166 6 -167 -87 -165 -83 3 -87 1 -95
-30 -4 -16 -2 -20 8 -16 8 3 14 0 14 -7 0 -10 3 -10 15 0 8 7 15 9 15 4 0 -10
356 -11 366 -2 3 4 17 3 30 -2 14 -6 26 -6 29 0 4 7 13 7 24 0 14 -7 23 -5 34
8 17 18 8 50 -11 38 -6 -3 -13 0 -15 6 -4 10 -8 9 -16 -2 -6 -8 -11 -10 -11
-5 0 6 -44 10 -113 9 -61 0 -116 3 -122 7 -11 8 -12 266 -1 315 10 43 181 214
215 214 6 0 11 5 11 10 0 19 76 11 101 -11 13 -11 35 -30 48 -41 16 -14 26
-17 29 -10 2 7 8 10 13 6 5 -3 9 -2 10 3 0 4 2 16 4 25 2 11 -2 15 -11 11 -12
-5 -19 7 -15 30 0 4 -4 7 -10 7 -7 0 -22 11 -34 24 -51 55 -188 16 -287 -85
-27 -26 -48 -44 -48 -41 0 3 -6 -2 -13 -12 -12 -17 -14 -17 -20 -2 -4 9 -1 16
6 16 7 0 8 3 2 8 -5 4 -10 27 -10 52 0 25 -4 50 -9 56 -6 6 -37 10 -73 8 -41
-2 -61 1 -57 7 3 6 -3 5 -15 -3 -18 -11 -23 -10 -36 7 -9 11 -14 14 -10 7z"/>
<path d="M2195 3529 c-4 -6 -5 -12 -2 -15 2 -3 7 2 10 11 7 17 1 20 -8 4z"/>
<path d="M2155 3460 c-3 -5 -1 -10 5 -10 6 0 8 -5 4 -12 -4 -7 -3 -8 4 -4 6 4
9 13 5 21 -6 18 -10 19 -18 5z"/>
<path d="M5535 3440 c-3 -5 -1 -10 4 -10 6 0 11 5 11 10 0 6 -2 10 -4 10 -3 0
-8 -4 -11 -10z"/>
<path d="M2150 3391 c0 -5 7 -12 16 -15 14 -5 15 -4 4 9 -14 17 -20 19 -20 6z"/>
<path d="M2127 3356 c-4 -10 -1 -13 9 -9 15 6 19 23 5 23 -5 0 -11 -7 -14 -14z"/>
<path d="M2160 3340 c-9 -6 -10 -10 -3 -10 6 0 15 5 18 10 8 12 4 12 -15 0z"/>
<path d="M5556 3338 c3 -5 10 -6 15 -3 13 9 11 12 -6 12 -8 0 -12 -4 -9 -9z"/>
<path d="M2130 3316 c0 -8 4 -17 9 -20 5 -4 7 3 4 14 -6 23 -13 26 -13 6z"/>
<path d="M2100 3260 c0 -6 7 -10 15 -10 8 0 15 2 15 4 0 2 -7 6 -15 10 -8 3
-15 1 -15 -4z"/>
<path d="M5570 3259 c0 -5 5 -7 10 -4 6 3 10 8 10 11 0 2 -4 4 -10 4 -5 0 -10
-5 -10 -11z"/>
<path d="M5615 3219 c5 -27 11 -33 20 -20 3 6 1 11 -5 11 -6 0 -9 4 -5 9 3 5
1 12 -4 16 -6 3 -8 -4 -6 -16z"/>
<path d="M2114 3218 c-4 -5 -3 -12 0 -15 3 -4 6 -1 6 6 0 7 4 10 9 6 5 -3 12
-2 15 3 3 5 -2 9 -10 9 -8 0 -17 -4 -20 -9z"/>
<path d="M2135 3189 c-4 -6 -5 -12 -2 -15 2 -3 7 2 10 11 7 17 1 20 -8 4z"/>
<path d="M2094 3160 c0 -13 4 -16 12 -10 6 6 14 7 17 3 4 -3 7 -3 7 0 0 3 -8
11 -18 16 -14 7 -18 6 -18 -9z"/>
<path d="M5628 3173 c7 -3 16 -2 19 1 4 3 -2 6 -13 5 -11 0 -14 -3 -6 -6z"/>
<path d="M2115 3069 c-4 -6 -5 -12 -2 -15 2 -3 7 2 10 11 7 17 1 20 -8 4z"/>
<path d="M2087 3047 c-3 -8 1 -14 8 -14 7 0 11 6 8 14 -3 7 -6 13 -8 13 -2 0
-5 -6 -8 -13z"/>
<path d="M5584 3042 c4 -3 14 -7 22 -8 9 -1 13 0 10 4 -4 3 -14 7 -22 8 -9 1
-13 0 -10 -4z"/>
<path d="M5635 3005 c0 -13 3 -21 8 -18 4 2 7 10 7 18 0 8 -3 16 -7 18 -5 3
-8 -5 -8 -18z"/>
<path d="M5654 2954 c-1 -13 1 -24 5 -24 9 0 12 38 3 44 -4 2 -8 -7 -8 -20z"/>
<path d="M5619 2953 c-13 -16 -12 -17 4 -4 16 13 21 21 13 21 -2 0 -10 -8 -17
-17z"/>
<path d="M5640 2874 c0 -8 -4 -13 -9 -9 -5 3 -12 1 -15 -4 -4 -5 1 -8 10 -7
19 3 41 36 24 36 -5 0 -10 -7 -10 -16z"/>
<path d="M2096 2842 c-3 -5 1 -9 9 -9 8 0 12 4 9 9 -3 4 -7 8 -9 8 -2 0 -6 -4
-9 -8z"/>
<path d="M5614 2818 c-3 -4 5 -5 17 -3 30 6 36 14 9 12 -12 -1 -24 -5 -26 -9z"/>
<path d="M5626 2745 c-11 -8 -15 -15 -9 -15 6 0 16 7 23 15 16 19 11 19 -14 0z"/>
<path d="M2110 2739 c0 -5 5 -7 10 -4 6 3 10 8 10 11 0 2 -4 4 -10 4 -5 0 -10
-5 -10 -11z"/>
<path d="M5616 2703 c-6 -14 -5 -15 5 -6 7 7 10 15 7 18 -3 3 -9 -2 -12 -12z"/>
<path d="M2108 2673 c7 -3 16 -2 19 1 4 3 -2 6 -13 5 -11 0 -14 -3 -6 -6z"/>
<path d="M2104 2648 c-4 -6 -2 -14 4 -16 7 -2 10 -8 7 -12 -3 -5 -1 -11 4 -14
8 -5 8 15 1 34 -1 3 -2 8 -1 13 2 11 -7 8 -15 -5z"/>
<path d="M5595 2640 c-3 -5 -1 -10 4 -10 6 0 11 5 11 10 0 6 -2 10 -4 10 -3 0
-8 -4 -11 -10z"/>
<path d="M2110 2586 c0 -2 7 -6 15 -10 8 -3 15 -1 15 4 0 6 -7 10 -15 10 -8 0
-15 -2 -15 -4z"/>
<path d="M5605 2550 c-4 -6 -11 -7 -17 -4 -6 4 -6 -2 1 -15 7 -11 15 -21 18
-21 3 0 3 3 0 6 -3 4 -2 15 4 25 10 20 5 27 -6 9z"/>
<path d="M2150 2539 c0 -5 5 -7 10 -4 6 3 10 8 10 11 0 2 -4 4 -10 4 -5 0 -10
-5 -10 -11z"/>
<path d="M5551 2487 c-8 -10 -7 -14 2 -14 8 0 14 6 14 14 0 7 -1 13 -2 13 -2
0 -8 -6 -14 -13z"/>
<path d="M5585 2460 c6 -10 4 -12 -11 -6 -15 6 -17 5 -6 -5 9 -9 15 -10 23 -2
8 8 7 13 -2 18 -8 6 -10 4 -4 -5z"/>
<path d="M2176 2442 c-3 -5 1 -9 9 -9 8 0 12 4 9 9 -3 4 -7 8 -9 8 -2 0 -6 -4
-9 -8z"/>
<path d="M2235 2440 c-3 -5 -1 -10 4 -10 6 0 11 5 11 10 0 6 -2 10 -4 10 -3 0
-8 -4 -11 -10z"/>
<path d="M5550 2436 c0 -2 7 -9 15 -16 9 -7 15 -8 15 -2 0 5 -7 12 -15 16 -8
3 -15 4 -15 2z"/>
<path d="M2193 2405 c0 -8 4 -15 9 -15 4 0 8 4 8 9 0 6 -4 12 -8 15 -5 3 -9
-1 -9 -9z"/>
<path d="M2173 2372 c10 -10 14 -22 10 -27 -5 -4 -2 -5 4 -1 10 5 10 11 0 26
-6 11 -16 20 -21 20 -5 0 -2 -8 7 -18z"/>
<path d="M5486 2342 c-3 -5 1 -9 9 -9 8 0 12 4 9 9 -3 4 -7 8 -9 8 -2 0 -6 -4
-9 -8z"/>
<path d="M2211 2324 c0 -11 3 -14 6 -6 3 7 2 16 -1 19 -3 4 -6 -2 -5 -13z"/>
<path d="M5507 2275 c3 -8 9 -12 14 -9 12 7 11 11 -5 17 -10 4 -13 1 -9 -8z"/>
<path d="M5480 2240 c-8 -5 -10 -10 -5 -10 6 0 17 5 25 10 8 5 11 10 5 10 -5
0 -17 -5 -25 -10z"/>
<path d="M2257 2194 c4 -12 3 -15 -5 -10 -16 10 -15 1 1 -12 10 -8 13 -6 14 8
1 11 -2 22 -8 25 -5 4 -6 -2 -2 -11z"/>
<path d="M5435 2150 c3 -5 8 -10 11 -10 2 0 4 5 4 10 0 6 -5 10 -11 10 -5 0
-7 -4 -4 -10z"/>
<path d="M2375 2091 c-3 -5 -2 -12 3 -15 5 -3 9 1 9 9 0 17 -3 19 -12 6z"/>
<path d="M5396 2078 c3 -4 9 -8 15 -8 5 0 9 4 9 8 0 5 -7 9 -15 9 -8 0 -12 -4
-9 -9z"/>
<path d="M2326 2045 c-3 -9 1 -18 9 -21 8 -4 13 -9 11 -13 -3 -4 4 -17 13 -30
14 -19 20 -21 26 -10 5 8 5 11 0 7 -14 -13 -35 25 -22 40 5 7 6 12 1 11 -22
-4 -33 2 -28 16 4 8 4 15 1 15 -3 0 -8 -7 -11 -15z"/>
<path d="M2375 2000 c3 -5 8 -10 11 -10 2 0 4 5 4 10 0 6 -5 10 -11 10 -5 0
-7 -4 -4 -10z"/>
<path d="M5370 1999 c0 -5 5 -7 10 -4 6 3 10 8 10 11 0 2 -4 4 -10 4 -5 0 -10
-5 -10 -11z"/>
<path d="M2390 1950 c0 -5 5 -10 11 -10 5 0 7 5 4 10 -3 6 -8 10 -11 10 -2 0
-4 -4 -4 -10z"/>
<path d="M2421 1907 c10 -11 22 -17 26 -14 3 4 1 7 -5 7 -7 0 -12 5 -12 11 0
5 5 7 10 4 6 -3 10 -2 10 3 0 5 -11 10 -24 10 -24 0 -24 -1 -5 -21z"/>
<path d="M5270 1926 c0 -2 7 -7 16 -10 8 -3 12 -2 9 4 -6 10 -25 14 -25 6z"/>
<path d="M2450 1875 c-11 -13 -10 -14 4 -9 9 3 16 10 16 15 0 13 -6 11 -20 -6z"/>
<path d="M3414 5887 c1 -23 -27 -31 -51 -13 -8 5 -13 4 -13 -2 0 -13 23 -21
46 -17 11 2 22 4 27 4 10 1 9 39 -1 45 -5 3 -8 -5 -8 -17z"/>
<path d="M3952 5896 c7 -8 15 -12 17 -11 5 6 -10 25 -20 25 -5 0 -4 -6 3 -14z"/>
<path d="M4335 5901 c-3 -5 -2 -12 3 -15 5 -3 9 1 9 9 0 17 -3 19 -12 6z"/>
<path d="M4375 5901 c-3 -5 -2 -12 3 -15 5 -3 9 1 9 9 0 17 -3 19 -12 6z"/>
<path d="M4459 5883 c0 -5 -3 -19 -5 -32 -2 -14 -2 -22 1 -19 8 8 17 58 10 58
-3 0 -5 -3 -6 -7z"/>
<path d="M3280 5869 c0 -5 -5 -7 -11 -3 -8 5 -9 2 -1 -11 10 -19 42 -30 42
-15 0 5 9 7 19 5 14 -3 18 1 14 12 -5 12 -7 12 -14 1 -5 -7 -9 -9 -9 -5 0 4
-9 3 -21 -4 -19 -10 -20 -8 -14 10 3 12 4 21 1 21 -3 0 -6 -5 -6 -11z"/>
<path d="M4427 5855 c-4 -8 -3 -16 1 -19 4 -3 9 4 9 15 2 23 -3 25 -10 4z"/>
<path d="M3184 5834 c2 -10 8 -20 14 -22 17 -5 15 13 -2 27 -12 10 -14 9 -12
-5z"/>
<path d="M4480 5840 c-8 -5 -12 -12 -9 -15 4 -3 12 1 19 10 14 17 11 19 -10 5z"/>
<path d="M4552 5831 c-10 -6 -9 -10 7 -14 12 -3 24 0 28 5 3 6 1 8 -5 4 -5 -3
-12 -2 -14 4 -2 5 -9 6 -16 1z"/>
<path d="M3081 5821 c-8 -5 -9 -11 -3 -15 5 -3 12 1 16 9 6 17 6 18 -13 6z"/>
<path d="M3110 5810 c-8 -15 -8 -18 3 -14 8 3 14 11 14 19 0 20 -4 19 -17 -5z"/>
<path d="M3160 5821 c0 -7 -5 -9 -12 -5 -7 5 -8 3 -3 -5 5 -9 10 -10 18 -2 6
6 8 14 4 18 -4 3 -7 1 -7 -6z"/>
<path d="M3016 5795 c-9 -26 -7 -32 5 -12 6 10 9 21 6 23 -2 3 -7 -2 -11 -11z"/>
<path d="M3041 5787 c-13 -21 -12 -21 5 -5 10 10 16 20 13 22 -3 3 -11 -5 -18
-17z"/>
<path d="M4590 5806 c0 -2 9 -6 20 -9 11 -3 18 -1 14 4 -5 9 -34 13 -34 5z"/>
<path d="M4710 5799 c0 -5 5 -7 10 -4 6 3 10 8 10 11 0 2 -4 4 -10 4 -5 0 -10
-5 -10 -11z"/>
<path d="M4685 5780 c3 -5 11 -10 16 -10 6 0 7 5 4 10 -3 6 -11 10 -16 10 -6
0 -7 -4 -4 -10z"/>
<path d="M4725 5781 c-3 -5 -2 -12 3 -15 5 -3 9 1 9 9 0 17 -3 19 -12 6z"/>
<path d="M4813 5753 c16 -17 36 -30 45 -28 10 1 22 -1 27 -6 7 -5 11 -1 11 9
0 13 -9 18 -36 17 -26 0 -34 4 -32 15 2 8 0 12 -4 8 -4 -4 -14 -2 -23 4 -9 7
-3 -2 12 -19z"/>
<path d="M2826 5762 c-3 -5 1 -9 9 -9 8 0 12 4 9 9 -3 4 -7 8 -9 8 -2 0 -6 -4
-9 -8z"/>
<path d="M2870 5746 c0 -2 9 -6 20 -9 11 -3 18 -1 14 4 -5 9 -34 13 -34 5z"/>
<path d="M2852 5726 c7 -8 15 -12 17 -11 5 6 -10 25 -20 25 -5 0 -4 -6 3 -14z"/>
<path d="M2770 5720 c-9 -6 -10 -10 -3 -10 6 0 15 5 18 10 8 12 4 12 -15 0z"/>
<path d="M4970 5721 c0 -6 4 -13 10 -16 6 -3 7 1 4 9 -7 18 -14 21 -14 7z"/>
<path d="M2794 5705 c-4 -8 -11 -12 -17 -8 -6 3 -7 1 -3 -5 10 -16 14 -15 26
8 6 11 8 20 5 20 -3 0 -8 -7 -11 -15z"/>
<path d="M2746 5697 c3 -10 9 -15 12 -12 3 3 0 11 -7 18 -10 9 -11 8 -5 -6z"/>
<path d="M2670 5685 c-7 -9 -11 -17 -9 -20 3 -2 10 5 17 15 14 24 10 26 -8 5z"/>
<path d="M2723 5681 c0 -11 5 -18 9 -15 4 3 5 11 1 19 -7 21 -12 19 -10 -4z"/>
<path d="M2699 5688 c-5 -18 -6 -38 -1 -34 7 8 12 36 6 36 -2 0 -4 -1 -5 -2z"/>
<path d="M2630 5656 c0 -3 9 -10 20 -16 11 -6 20 -8 20 -6 0 3 -9 10 -20 16
-11 6 -20 8 -20 6z"/>
<path d="M5150 5656 c0 -2 8 -10 18 -17 15 -13 16 -12 3 4 -13 16 -21 21 -21
13z"/>
<path d="M5105 5640 c-4 -6 -12 -7 -18 -4 -9 5 -9 4 0 -6 9 -10 15 -10 28 4 9
9 12 16 6 16 -5 0 -13 -5 -16 -10z"/>
<path d="M2535 5620 c-3 -5 -1 -10 4 -10 6 0 11 5 11 10 0 6 -2 10 -4 10 -3 0
-8 -4 -11 -10z"/>
<path d="M5161 5604 c0 -11 3 -14 6 -6 3 7 2 16 -1 19 -3 4 -6 -2 -5 -13z"/>
<path d="M5240 5600 c-9 -6 -10 -10 -3 -10 6 0 15 5 18 10 8 12 4 12 -15 0z"/>
<path d="M2510 5580 c0 -5 5 -10 10 -10 6 0 10 5 10 10 0 6 -4 10 -10 10 -5 0
-10 -4 -10 -10z"/>
<path d="M2450 5561 c0 -6 4 -13 10 -16 6 -3 7 1 4 9 -7 18 -14 21 -14 7z"/>
<path d="M2470 5566 c0 -2 7 -6 15 -10 8 -3 15 -1 15 4 0 6 -7 10 -15 10 -8 0
-15 -2 -15 -4z"/>
<path d="M5260 5566 c0 -2 7 -6 15 -10 8 -3 15 -1 15 4 0 6 -7 10 -15 10 -8 0
-15 -2 -15 -4z"/>
<path d="M5307 5533 c3 -7 9 -10 14 -7 14 8 11 21 -5 21 -8 0 -12 -6 -9 -14z"/>
<path d="M5337 5523 c-11 -11 -8 -21 9 -27 13 -5 14 -4 6 7 -7 8 -9 17 -5 20
3 4 4 7 1 7 -2 0 -8 -3 -11 -7z"/>
<path d="M5385 5519 c-4 -6 -5 -12 -2 -15 2 -3 7 2 10 11 7 17 1 20 -8 4z"/>
<path d="M2325 5500 c-16 -7 -17 -9 -3 -9 9 -1 20 4 23 9 7 11 7 11 -20 0z"/>
<path d="M5385 5482 c-6 -6 4 -22 15 -22 4 0 10 6 13 13 5 13 -17 20 -28 9z"/>
<path d="M2236 5462 c-3 -5 1 -9 9 -9 8 0 12 4 9 9 -3 4 -7 8 -9 8 -2 0 -6 -4
-9 -8z"/>
<path d="M2270 5460 c0 -5 5 -10 10 -10 6 0 10 5 10 10 0 6 -4 10 -10 10 -5 0
-10 -4 -10 -10z"/>
<path d="M2214 5432 c3 -6 -2 -15 -11 -21 -10 -6 -13 -11 -7 -11 20 0 37 27
23 36 -7 4 -9 3 -5 -4z"/>
<path d="M2240 5431 c0 -6 4 -13 10 -16 6 -3 7 1 4 9 -7 18 -14 21 -14 7z"/>
<path d="M5536 5427 c3 -10 9 -15 12 -12 3 3 0 11 -7 18 -10 9 -11 8 -5 -6z"/>
<path d="M5496 5413 c-6 -14 -5 -15 5 -6 7 7 10 15 7 18 -3 3 -9 -2 -12 -12z"/>
<path d="M2155 5400 c-3 -5 -1 -10 4 -10 6 0 11 5 11 10 0 6 -2 10 -4 10 -3 0
-8 -4 -11 -10z"/>
<path d="M5560 5400 c-12 -7 -10 -9 7 -7 12 0 19 5 17 9 -6 10 -6 10 -24 -2z"/>
<path d="M5581 5372 c-1 -8 8 -25 18 -38 16 -21 20 -22 25 -8 4 9 4 19 1 22
-3 3 -5 0 -5 -7 0 -15 -23 6 -33 29 -4 11 -6 11 -6 2z"/>
<path d="M2104 5358 c-4 -5 -3 -12 0 -15 3 -4 6 -1 6 6 0 7 4 10 9 6 5 -3 12
-2 15 3 3 5 -2 9 -10 9 -8 0 -17 -4 -20 -9z"/>
<path d="M2131 5339 c-13 -11 -22 -22 -19 -24 2 -3 15 6 28 20 28 30 24 32 -9
4z"/>
<path d="M5635 5320 c-3 -5 -1 -10 4 -10 6 0 11 5 11 10 0 6 -2 10 -4 10 -3 0
-8 -4 -11 -10z"/>
<path d="M5670 5310 c-9 -6 -10 -10 -3 -10 6 0 15 5 18 10 8 12 4 12 -15 0z"/>
<path d="M2030 5292 c8 -2 20 -8 25 -12 6 -5 15 -3 21 4 9 9 3 12 -25 13 -20
0 -29 -2 -21 -5z"/>
<path d="M1959 5273 c-13 -16 -12 -17 4 -4 9 7 17 15 17 17 0 8 -8 3 -21 -13z"/>
<path d="M5677 5277 c-3 -8 0 -14 7 -14 7 0 13 6 13 14 0 7 -4 13 -8 13 -4 0
-9 -6 -12 -13z"/>
<path d="M1930 5241 c0 -6 4 -13 10 -16 6 -3 7 1 4 9 -7 18 -14 21 -14 7z"/>
<path d="M5840 5160 c-14 -11 -22 -20 -17 -21 4 -1 10 -2 15 -3 10 -1 52 -44
51 -52 0 -3 3 -9 7 -12 4 -4 4 -1 0 6 -4 6 -3 12 1 12 5 0 9 10 10 23 0 12 -1
16 -4 10 -11 -29 -39 -11 -34 20 1 5 -3 6 -9 2 -14 -9 -13 8 2 23 18 18 6 14
-22 -8z"/>
<path d="M1847 5127 c-7 -19 8 -43 17 -28 4 6 3 11 -3 11 -6 0 -8 7 -5 15 4 8
4 15 1 15 -3 0 -7 -6 -10 -13z"/>
<path d="M1810 5100 c-9 -6 -10 -10 -3 -10 6 0 15 5 18 10 8 12 4 12 -15 0z"/>
<path d="M5944 5043 c2 -9 8 -19 14 -21 7 -2 10 -8 7 -12 -3 -5 0 -12 6 -16 8
-4 9 -3 5 4 -4 7 -3 12 3 12 11 0 9 26 -4 37 -4 4 -5 2 -1 -4 4 -8 1 -13 -9
-13 -9 0 -14 4 -10 9 3 5 1 12 -4 15 -5 4 -8 -2 -7 -11z"/>
<path d="M1696 4998 c3 -5 10 -6 15 -3 13 9 11 12 -6 12 -8 0 -12 -4 -9 -9z"/>
<path d="M1655 4960 c-3 -5 -1 -10 4 -10 6 0 11 5 11 10 0 6 -2 10 -4 10 -3 0
-8 -4 -11 -10z"/>
<path d="M6036 4953 c-6 -14 -5 -15 5 -6 7 7 10 15 7 18 -3 3 -9 -2 -12 -12z"/>
<path d="M6056 4941 c-8 -12 21 -47 31 -38 4 5 0 14 -9 21 -10 7 -15 16 -11
19 3 4 4 7 0 7 -3 0 -8 -4 -11 -9z"/>
<path d="M6170 4859 c0 -5 5 -7 10 -4 6 3 10 8 10 11 0 2 -4 4 -10 4 -5 0 -10
-5 -10 -11z"/>
<path d="M6136 4831 c-3 -4 5 -17 17 -28 26 -24 58 -27 49 -4 -4 10 -7 11 -10
3 -2 -7 -8 -12 -13 -12 -6 0 -7 5 -3 12 4 6 3 8 -3 5 -6 -4 -17 1 -24 10 -12
14 -11 15 11 9 19 -6 21 -5 10 3 -18 13 -27 14 -34 2z"/>
<path d="M1525 4802 c4 -4 11 -7 16 -7 14 0 11 -20 -3 -21 -7 0 -18 4 -25 8
-7 6 -14 4 -19 -4 -4 -7 -3 -10 1 -5 5 4 15 1 24 -7 14 -13 19 -13 35 0 15 11
17 17 8 26 -6 6 -19 13 -28 14 -9 1 -13 -1 -9 -4z"/>
<path d="M1455 4740 c3 -5 8 -10 11 -10 2 0 4 5 4 10 0 6 -5 10 -11 10 -5 0
-7 -4 -4 -10z"/>
<path d="M6235 4734 c-12 -12 -13 -19 -4 -30 6 -8 15 -11 20 -8 11 6 12 14 2
13 -19 -3 -23 2 -11 15 7 8 17 11 22 8 5 -3 6 0 2 6 -9 15 -11 15 -31 -4z"/>
<path d="M6275 4709 c-13 -19 -12 -59 0 -69 9 -8 14 -6 19 6 4 9 4 19 1 22 -3
3 -5 0 -5 -6 0 -7 -5 -12 -11 -12 -5 0 -7 5 -4 11 7 11 14 59 9 59 -1 0 -6 -5
-9 -11z"/>
<path d="M1455 4691 c-3 -5 -1 -12 5 -16 12 -7 4 -25 -11 -25 -6 0 -8 4 -5 9
7 11 -21 8 -31 -4 -4 -4 -2 -5 5 -1 7 4 15 1 18 -9 6 -14 8 -14 25 1 13 12 16
21 9 29 -5 6 -7 15 -3 18 3 4 4 7 0 7 -3 0 -8 -4 -12 -9z"/>
<path d="M6313 4647 c0 -8 6 -14 14 -14 9 0 10 4 2 14 -6 7 -12 13 -14 13 -1
0 -2 -6 -2 -13z"/>
<path d="M1420 4631 c0 -10 19 -25 25 -20 1 2 -3 10 -11 17 -8 7 -14 8 -14 3z"/>
<path d="M1385 4620 c-3 -6 1 -7 9 -4 18 7 21 14 7 14 -6 0 -13 -4 -16 -10z"/>
<path d="M6375 4581 c-3 -5 -2 -12 3 -15 5 -3 9 1 9 9 0 17 -3 19 -12 6z"/>
<path d="M6366 4522 c-2 -4 4 -8 14 -8 10 0 16 4 14 8 -3 4 -9 8 -14 8 -5 0
-11 -4 -14 -8z"/>
<path d="M1320 4480 c0 -5 5 -10 11 -10 5 0 7 5 4 10 -3 6 -8 10 -11 10 -2 0
-4 -4 -4 -10z"/>
<path d="M6395 4480 c-3 -5 -1 -10 4 -10 6 0 11 5 11 10 0 6 -2 10 -4 10 -3 0
-8 -4 -11 -10z"/>
<path d="M6425 4459 c4 -5 1 -16 -5 -24 -9 -11 -9 -15 -1 -15 6 0 11 5 11 11
0 5 4 8 8 5 5 -3 9 1 9 9 0 8 -7 17 -14 19 -8 3 -11 1 -8 -5z"/>
<path d="M1256 4415 c-9 -26 -7 -32 5 -12 6 10 9 21 6 23 -2 3 -7 -2 -11 -11z"/>
<path d="M6460 4405 c0 -2 6 -8 13 -14 10 -8 14 -7 14 2 0 8 -6 14 -14 14 -7
0 -13 -1 -13 -2z"/>
<path d="M6457 4359 c14 -29 33 -39 33 -18 0 5 -4 7 -10 4 -5 -3 -10 3 -10 13
0 11 -6 22 -14 25 -11 5 -11 1 1 -24z"/>
<path d="M1253 4329 c-2 -23 3 -25 10 -4 4 8 3 16 -1 19 -4 3 -9 -4 -9 -15z"/>
<path d="M6481 4313 c-1 -17 16 -25 25 -12 4 7 3 9 -4 5 -5 -3 -13 0 -15 6 -4
9 -6 10 -6 1z"/>
<path d="M1227 4295 c3 -8 9 -12 14 -9 12 7 11 11 -5 17 -10 4 -13 1 -9 -8z"/>
<path d="M6520 4295 c-7 -9 -11 -17 -9 -20 3 -2 10 5 17 15 14 24 10 26 -8 5z"/>
<path d="M6525 4260 c-3 -6 1 -7 9 -4 18 7 21 14 7 14 -6 0 -13 -4 -16 -10z"/>
<path d="M6540 4234 c0 -8 -4 -13 -9 -9 -5 3 -3 -8 5 -25 15 -29 34 -40 34
-19 0 5 -4 7 -10 4 -10 -6 -14 13 -11 48 1 9 0 17 -3 17 -3 0 -6 -7 -6 -16z"/>
<path d="M1190 4220 c0 -5 5 -10 11 -10 5 0 7 5 4 10 -3 6 -8 10 -11 10 -2 0
-4 -4 -4 -10z"/>
<path d="M1136 4111 c-4 -5 -2 -12 3 -15 5 -4 12 -2 15 3 4 5 2 12 -3 15 -5 4
-12 2 -15 -3z"/>
<path d="M6630 4096 c0 -2 8 -10 18 -17 15 -13 16 -12 3 4 -13 16 -21 21 -21
13z"/>
<path d="M6610 4050 c5 -10 7 -20 3 -23 -3 -4 2 -9 11 -13 12 -5 14 -10 5 -20
-14 -17 -4 -33 21 -31 10 1 17 5 14 9 -3 4 -11 5 -19 1 -18 -6 -20 13 -2 21 9
3 8 8 -4 18 -9 7 -15 22 -13 34 2 13 -2 21 -11 21 -10 0 -11 -5 -5 -17z"/>
<path d="M1115 4040 c-3 -5 -1 -10 4 -10 6 0 11 5 11 10 0 6 -2 10 -4 10 -3 0
-8 -4 -11 -10z"/>
<path d="M1074 4018 c-4 -7 -4 -10 1 -6 4 4 16 3 26 -3 11 -5 19 -7 19 -5 0 3
-9 10 -19 16 -15 7 -22 7 -27 -2z"/>
<path d="M6636 3939 c12 -20 63 -49 69 -39 4 6 3 9 -2 8 -13 -4 -54 22 -49 31
3 4 -1 8 -9 8 -8 0 -12 -4 -9 -8z"/>
<path d="M6670 3939 c0 -5 5 -7 10 -4 6 3 10 8 10 11 0 2 -4 4 -10 4 -5 0 -10
-5 -10 -11z"/>
<path d="M1052 3868 c2 -7 -3 -12 -11 -10 -12 3 -12 0 -1 -13 7 -8 15 -13 18
-10 10 10 10 35 1 41 -5 3 -8 0 -7 -8z"/>
<path d="M6675 3850 c3 -5 8 -10 11 -10 2 0 4 5 4 10 0 6 -5 10 -11 10 -5 0
-7 -4 -4 -10z"/>
<path d="M6685 3811 c2 -26 15 -41 33 -40 16 1 16 2 0 6 -11 3 -15 12 -12 27
2 14 -1 23 -9 23 -8 0 -13 -8 -12 -16z"/>
<path d="M1010 3799 c0 -5 5 -7 10 -4 6 3 10 8 10 11 0 2 -4 4 -10 4 -5 0 -10
-5 -10 -11z"/>
<path d="M6727 3669 c7 -7 15 -10 18 -7 3 3 -2 9 -12 12 -14 6 -15 5 -6 -5z"/>
<path d="M957 3638 c-7 -5 0 -6 17 -4 16 3 31 7 33 10 8 8 -37 2 -50 -6z"/>
<path d="M994 3615 c-4 -8 -11 -12 -17 -8 -6 3 -7 1 -3 -5 3 -6 -2 -15 -11
-21 -10 -6 -13 -11 -7 -11 11 0 34 23 48 48 4 6 5 12 1 12 -3 0 -8 -7 -11 -15z"/>
<path d="M920 3560 c-9 -6 -10 -10 -3 -10 6 0 15 5 18 10 8 12 4 12 -15 0z"/>
<path d="M975 3560 c-3 -5 -1 -10 4 -10 6 0 11 5 11 10 0 6 -2 10 -4 10 -3 0
-8 -4 -11 -10z"/>
<path d="M6760 3515 c-7 -9 -8 -15 -2 -15 5 0 12 7 16 15 3 8 4 15 2 15 -2 0
-9 -7 -16 -15z"/>
<path d="M6795 3523 c3 -3 0 -11 -5 -18 -7 -8 -5 -12 4 -12 14 0 16 22 3 32
-4 3 -5 2 -2 -2z"/>
<path d="M926 3458 c3 -5 10 -6 15 -3 13 9 11 12 -6 12 -8 0 -12 -4 -9 -9z"/>
<path d="M6773 3425 c0 -8 4 -12 9 -9 5 3 6 10 3 15 -9 13 -12 11 -12 -6z"/>
<path d="M6797 3412 c-14 -15 -14 -19 -3 -19 8 0 14 5 13 11 -1 6 4 10 11 8 8
-1 11 2 7 8 -8 13 -9 13 -28 -8z"/>
<path d="M6789 3378 c-6 -21 -5 -37 2 -32 5 3 7 9 4 14 -3 4 1 11 7 13 10 4
10 6 1 6 -7 1 -13 0 -14 -1z"/>
<path d="M6787 3317 c-3 -8 0 -14 7 -14 7 0 13 6 13 14 0 7 -4 13 -8 13 -4 0
-9 -6 -12 -13z"/>
<path d="M926 3288 c3 -5 10 -6 15 -3 13 9 11 12 -6 12 -8 0 -12 -4 -9 -9z"/>
<path d="M920 3260 c20 -13 33 -13 25 0 -3 6 -14 10 -23 10 -15 0 -15 -2 -2
-10z"/>
<path d="M897 3233 c3 -7 6 -13 8 -13 2 0 5 6 8 13 3 8 -1 14 -8 14 -7 0 -11
-6 -8 -14z"/>
<path d="M6830 3235 c0 -8 2 -15 4 -15 2 0 6 7 10 15 3 8 1 15 -4 15 -6 0 -10
-7 -10 -15z"/>
<path d="M926 3185 c3 -7 -2 -15 -13 -18 -14 -4 -15 -5 -2 -6 24 -2 44 25 25
32 -10 4 -13 1 -10 -8z"/>
<path d="M866 3102 c-3 -5 1 -9 9 -9 8 0 12 4 9 9 -3 4 -7 8 -9 8 -2 0 -6 -4
-9 -8z"/>
<path d="M923 3005 c0 -8 4 -12 9 -9 5 3 6 10 3 15 -9 13 -12 11 -12 -6z"/>
<path d="M920 2970 c-9 -6 -10 -10 -3 -10 6 0 15 5 18 10 8 12 4 12 -15 0z"/>
<path d="M910 2939 c0 -5 5 -7 10 -4 6 3 10 8 10 11 0 2 -4 4 -10 4 -5 0 -10
-5 -10 -11z"/>
<path d="M910 2901 c0 -6 6 -11 13 -11 8 0 7 -4 -3 -10 -9 -6 -10 -10 -3 -10
19 0 24 17 8 30 -10 9 -15 9 -15 1z"/>
<path d="M6820 2865 c8 -11 15 -21 16 -23 1 -2 5 5 8 15 4 9 4 14 0 10 -4 -4
-14 -1 -23 6 -14 11 -15 10 -1 -8z"/>
<path d="M896 2843 c-6 -14 -5 -15 5 -6 7 7 10 15 7 18 -3 3 -9 -2 -12 -12z"/>
<path d="M6803 2846 c0 -9 5 -16 10 -16 5 0 4 -7 -3 -15 -13 -15 -6 -35 13
-35 8 0 7 4 -2 9 -11 7 -12 13 -3 24 9 10 9 18 -2 32 -11 15 -13 16 -13 1z"/>
<path d="M895 2769 c-4 -6 -5 -12 -2 -15 2 -3 7 2 10 11 7 17 1 20 -8 4z"/>
<path d="M920 2775 c1 -5 1 -12 0 -15 -1 -3 -3 -13 -5 -23 -3 -14 0 -16 10 -7
14 11 14 34 1 47 -4 4 -7 4 -6 -2z"/>
<path d="M6820 2759 c0 -5 5 -7 10 -4 6 3 10 8 10 11 0 2 -4 4 -10 4 -5 0 -10
-5 -10 -11z"/>
<path d="M6799 2744 c0 -5 -2 -16 -4 -25 -1 -9 3 -16 10 -16 8 0 12 9 9 20 -4
22 -14 35 -15 21z"/>
<path d="M6850 2741 c0 -6 4 -13 10 -16 6 -3 7 1 4 9 -7 18 -14 21 -14 7z"/>
<path d="M6835 2709 c-4 -6 -5 -12 -2 -15 2 -3 7 2 10 11 7 17 1 20 -8 4z"/>
<path d="M874 2686 c1 -8 5 -18 8 -22 4 -3 5 1 4 10 -1 8 -5 18 -8 22 -4 3 -5
-1 -4 -10z"/>
<path d="M919 2673 c-13 -16 -12 -17 4 -4 9 7 17 15 17 17 0 8 -8 3 -21 -13z"/>
<path d="M6800 2680 c20 -13 33 -13 25 0 -3 6 -14 10 -23 10 -15 0 -15 -2 -2
-10z"/>
<path d="M6797 2659 c7 -7 15 -10 18 -7 3 3 -2 9 -12 12 -14 6 -15 5 -6 -5z"/>
<path d="M925 2650 c-4 -6 -12 -7 -18 -3 -8 5 -8 2 0 -9 7 -8 10 -18 6 -21 -3
-4 -1 -7 5 -7 7 0 12 5 12 11 0 5 6 7 13 3 9 -6 9 -5 0 8 -7 8 -10 18 -6 21 3
4 4 7 0 7 -3 0 -9 -5 -12 -10z"/>
<path d="M6806 2627 c3 -10 9 -15 12 -12 3 3 0 11 -7 18 -10 9 -11 8 -5 -6z"/>
<path d="M917 2529 c4 -13 8 -18 11 -10 2 7 -1 18 -6 23 -8 8 -9 4 -5 -13z"/>
<path d="M6795 2540 c3 -5 8 -10 11 -10 2 0 4 5 4 10 0 6 -5 10 -11 10 -5 0
-7 -4 -4 -10z"/>
<path d="M943 2515 c0 -8 4 -12 9 -9 5 3 6 10 3 15 -9 13 -12 11 -12 -6z"/>
<path d="M6783 2486 c-9 -11 -7 -14 12 -12 17 1 21 4 13 14 -12 14 -10 14 -25
-2z"/>
<path d="M935 2480 c-3 -5 -2 -10 4 -10 5 0 13 5 16 10 3 6 2 10 -4 10 -5 0
-13 -4 -16 -10z"/>
<path d="M940 2456 c0 -2 7 -7 16 -10 8 -3 12 -2 9 4 -6 10 -25 14 -25 6z"/>
<path d="M6796 2427 c3 -10 9 -15 12 -12 3 3 0 11 -7 18 -10 9 -11 8 -5 -6z"/>
<path d="M948 2423 c7 -3 16 -2 19 1 4 3 -2 6 -13 5 -11 0 -14 -3 -6 -6z"/>
<path d="M935 2400 c-3 -5 -1 -10 4 -10 6 0 11 5 11 10 0 6 -2 10 -4 10 -3 0
-8 -4 -11 -10z"/>
<path d="M965 2380 c3 -5 8 -10 11 -10 2 0 4 5 4 10 0 6 -5 10 -11 10 -5 0 -7
-4 -4 -10z"/>
<path d="M954 2345 c0 -13 4 -21 8 -19 5 3 6 9 3 14 -3 4 0 10 7 12 8 3 7 6
-3 10 -11 4 -15 -1 -15 -17z"/>
<path d="M6787 2359 c7 -7 15 -10 18 -7 3 3 -2 9 -12 12 -14 6 -15 5 -6 -5z"/>
<path d="M977 2324 c-7 -8 3 -34 13 -34 9 0 8 26 -1 35 -3 3 -8 2 -12 -1z"/>
<path d="M6743 2320 c2 -8 12 -16 23 -17 13 -2 15 -1 4 4 -8 3 -19 11 -23 17
-6 7 -7 6 -4 -4z"/>
<path d="M980 2276 c0 -2 8 -10 18 -17 15 -13 16 -12 3 4 -13 16 -21 21 -21
13z"/>
<path d="M970 2239 c0 -5 5 -7 10 -4 6 3 10 8 10 11 0 2 -4 4 -10 4 -5 0 -10
-5 -10 -11z"/>
<path d="M6746 2223 c-6 -14 -5 -15 5 -6 7 7 10 15 7 18 -3 3 -9 -2 -12 -12z"/>
<path d="M6713 2195 c0 -8 4 -12 9 -9 4 3 8 9 8 15 0 5 -4 9 -8 9 -5 0 -9 -7
-9 -15z"/>
<path d="M6735 2180 c-3 -5 -1 -10 4 -10 6 0 11 5 11 10 0 6 -2 10 -4 10 -3 0
-8 -4 -11 -10z"/>
<path d="M996 2168 c3 -5 10 -6 15 -3 13 9 11 12 -6 12 -8 0 -12 -4 -9 -9z"/>
<path d="M1001 2128 c5 -10 11 -18 12 -18 2 0 3 8 3 18 0 10 -6 19 -13 19 -8
0 -9 -6 -2 -19z"/>
<path d="M1030 2106 c0 -2 7 -7 16 -10 8 -3 12 -2 9 4 -6 10 -25 14 -25 6z"/>
<path d="M1019 2086 c7 -8 9 -21 5 -27 -4 -8 -3 -9 4 -5 17 10 15 33 -4 40
-14 5 -15 4 -5 -8z"/>
<path d="M990 2059 c0 -5 5 -7 10 -4 6 3 10 8 10 11 0 2 -4 4 -10 4 -5 0 -10
-5 -10 -11z"/>
<path d="M1035 2030 c-3 -5 -1 -10 4 -10 6 0 11 5 11 10 0 6 -2 10 -4 10 -3 0
-8 -4 -11 -10z"/>
<path d="M1034 1968 c-19 -23 -19 -23 2 -5 11 9 24 14 29 10 4 -5 5 -2 1 5 -9
16 -10 16 -32 -10z"/>
<path d="M1082 1985 c4 -4 3 -14 -3 -22 -7 -8 -8 -13 -1 -13 15 0 23 28 9 36
-7 4 -9 4 -5 -1z"/>
<path d="M6654 1975 c-18 -15 -18 -15 0 -8 15 5 17 3 11 -8 -5 -8 -4 -11 0 -6
8 7 17 37 11 37 -1 0 -11 -7 -22 -15z"/>
<path d="M1086 1923 c-4 -10 -4 -14 0 -10 4 4 14 1 23 -6 14 -10 14 -10 4 4
-7 9 -10 19 -6 22 3 4 2 7 -4 7 -6 0 -14 -8 -17 -17z"/>
<path d="M6627 1913 c-10 -9 -9 -23 1 -23 5 0 9 7 9 15 0 17 -1 18 -10 8z"/>
<path d="M1100 1882 c0 -5 7 -9 15 -9 8 0 12 4 9 9 -3 4 -9 8 -15 8 -5 0 -9
-4 -9 -8z"/>
<path d="M1115 1830 c-16 -7 -17 -9 -3 -9 9 -1 20 4 23 9 7 11 7 11 -20 0z"/>
<path d="M1130 1800 c0 -5 5 -10 10 -10 6 0 10 5 10 10 0 6 -4 10 -10 10 -5 0
-10 -4 -10 -10z"/>
<path d="M6596 1799 c4 -8 30 -6 38 2 3 3 -5 5 -19 5 -13 0 -22 -3 -19 -7z"/>
<path d="M6565 1760 c-3 -5 -1 -10 4 -10 6 0 11 5 11 10 0 6 -2 10 -4 10 -3 0
-8 -4 -11 -10z"/>
<path d="M6610 1746 c0 -2 7 -7 16 -10 8 -3 12 -2 9 4 -6 10 -25 14 -25 6z"/>
<path d="M1155 1702 c3 -3 -1 -12 -7 -21 -8 -10 -4 -9 10 3 26 23 26 23 7 23
-8 0 -13 -3 -10 -5z"/>
<path d="M1181 1686 c-9 -11 -10 -16 -2 -16 6 0 11 6 11 13 1 6 7 1 15 -13 8
-14 14 -20 15 -14 0 5 -6 18 -13 28 -12 16 -14 16 -26 2z"/>
<path d="M6530 1670 c-6 -11 -8 -20 -6 -20 3 0 10 9 16 20 6 11 8 20 6 20 -3
0 -10 -9 -16 -20z"/>
<path d="M6570 1663 c0 -6 8 -17 18 -24 16 -13 16 -13 2 6 -8 11 -16 22 -17
24 -2 2 -3 0 -3 -6z"/>
<path d="M6536 1642 c-3 -5 1 -9 9 -9 8 0 12 4 9 9 -3 4 -7 8 -9 8 -2 0 -6 -4
-9 -8z"/>
<path d="M1195 1631 c-3 -5 0 -13 6 -17 7 -4 9 -3 5 4 -3 5 0 13 6 15 9 4 10
6 1 6 -6 1 -14 -3 -18 -8z"/>
<path d="M1226 1612 c2 -3 -1 -11 -7 -18 -7 -8 -6 -14 2 -20 7 -4 9 -3 5 4 -3
5 0 12 6 15 9 3 10 7 2 15 -6 5 -9 7 -8 4z"/>
<path d="M1246 1565 c4 -8 11 -15 16 -15 6 0 5 6 -2 15 -7 8 -14 15 -16 15 -2
0 -1 -7 2 -15z"/>
<path d="M6447 1524 c-3 -3 -3 -13 0 -22 5 -11 3 -13 -8 -7 -12 8 -12 6 0 -8
18 -22 17 -22 17 13 0 32 0 33 -9 24z"/>
<path d="M6495 1500 c3 -5 8 -10 11 -10 2 0 4 5 4 10 0 6 -5 10 -11 10 -5 0
-7 -4 -4 -10z"/>
<path d="M1290 1481 c0 -5 7 -12 16 -15 14 -5 15 -4 4 9 -14 17 -20 19 -20 6z"/>
<path d="M6398 1413 c7 -3 16 -2 19 1 4 3 -2 6 -13 5 -11 0 -14 -3 -6 -6z"/>
<path d="M1339 1378 c-5 -18 -6 -38 -1 -34 7 8 12 36 6 36 -2 0 -4 -1 -5 -2z"/>
</g>
</svg>
